<?xml version="1.0" encoding="UTF-8" standalone="no"?>
<svg xmlns:xlink="http://www.w3.org/1999/xlink" xmlns:sketch="http://www.bohemiancoding.com/sketch/ns" width="107px" height="106px" viewBox="0 0 107 106"
     version="1.1" xmlns="http://www.w3.org/2000/svg">
    <!-- Generator: Sketch 3.3.2 (12043) - http://www.bohemiancoding.com/sketch -->
    <title>2</title>
    <desc>Created with Sketch.</desc>
    <defs>
        <circle id="path-1" cx="52.7093596" cy="52.7093596" r="52.7093596"></circle>
        <path d="M70.2048383,42.8391998 C66.4129014,31.508655 54.0404619,15.3495373 24.1690001,23.1036323 C21.3616535,21.3608151 11.0466701,16.2527075 11.0466701,16.2527075 L9.67536547,16.8146356 L13.5917346,29.1334618 C13.5917346,29.1334618 10.3899195,32.5389273 9.14770338,34.3293981 C7.69733581,36.4198885 5.51398349,40.7763454 5.51398349,40.7763454 C5.51398349,40.7763454 3.64333413,41.0389372 2.70796954,41.24614 C1.84913072,41.4363908 0.131373261,41.9687062 0.131373261,41.9687062 L0.221994438,58.0624633 C0.221994438,58.0624633 1.25983444,58.7153 1.75035743,58.8700767 C2.97492412,59.2564692 5.36726349,59.6859711 5.36726349,59.6859711 C5.36726349,59.6859711 8.12357849,64.9963167 10.0060255,67.2769576 C11.7500238,69.3898637 16.2465995,72.8666121 16.2465995,72.8666121 L18.9263972,83.8862488 L29.0692563,84.0836183 L30.0224568,79.4042368 C30.0224568,79.4042368 35.2108857,79.9511487 37.8050011,79.8828181 C40.5335613,79.8109461 45.9904836,78.983629 45.9904836,78.983629 L46.9710143,84.3715286 L57.889188,84.3815887 L60.1806092,71.9880304 C60.1806092,71.9880304 73.5303264,63.5818744 71.2622845,46.9168359 C71.2403208,46.7947633 71.2171577,46.6713138 71.192777,46.5465463 L71.3286,46.9389128 C71.3286,46.9389128 75.0062784,42.9107516 80.0614075,47.3794904 C80.6899276,48.2841836 80.9139295,48.5750081 80.6899276,49.9871837 C80.4659257,51.3993593 78.8965427,51.9066527 78.4270114,51.9066513 C78.0892389,51.9066503 76.695876,51.6876835 76.4325944,50.1008534 C76.2132986,48.7791315 76.9840672,47.4970149 76.9840672,47.4970149 C76.9840672,47.4970149 78.1203007,44.2206581 81.8230471,43.8733002 C84.2822143,43.6426035 87.0526294,44.9465303 88.2246826,45.3458719 C88.6453169,45.4891903 88.6625377,45.0121324 88.6625377,45.0121324 C88.6625377,45.0121324 84.2394234,41.7390395 81.3583179,41.8758475 C79.9629783,41.9421046 76.695876,41.8758475 73.5959249,47.4924079 C73.2422404,48.1332214 72.0664468,52.5899178 76.6958758,54.4476236 C77.3317739,54.702798 82.4240099,55.9148087 82.8559249,49.2183782 C83.0032953,46.9335406 80.8274768,43.0321746 76.9850552,42.3184461 C73.809372,41.7285641 71.0458434,42.5467728 70.2048383,42.8391998 Z"
              id="path-3"></path>
    </defs>
    <g id="Page-1" stroke="none" stroke-width="1" fill="none" fill-rule="evenodd" sketch:type="MSPage">
        <g id="随手出" sketch:type="MSArtboardGroup" transform="translate(-149.000000, -99.000000)">
            <g id="Group" sketch:type="MSLayerGroup">
                <g id="2" transform="translate(149.753695, 99.507389)">
                    <mask id="mask-2" sketch:name="Mask" fill="white">
                        <use xlink:href="#path-1"></use>
                    </mask>
                    <use id="Mask" fill="#DB3423" sketch:type="MSShapeGroup" xlink:href="#path-1"></use>
                    <path d="M66.0391508,28.0832574 C66.0391508,28.0832574 104.105545,53.7311678 122.856101,63.8417636 C141.606657,73.9523594 112.392373,82.2927293 112.831656,82.5974372 C106.7193,113.257548 79.0870185,106.96793 68.2586159,109.750278 C50.0597632,97.727532 33.7045516,89.8577705 33.7045516,89.8577705 C33.7045516,89.8577705 33.9117974,69.0915612 35.1010105,69.7175468"
                          id="Path-9" fill="#9F261A" sketch:type="MSShapeGroup" mask="url(#mask-2)"></path>
                    <g id="Piggy-Bank" mask="url(#mask-2)">
                        <g transform="translate(14.778325, 5.952979)">
                            <mask id="mask-4" sketch:name="Mask" fill="white">
                                <use xlink:href="#path-3"></use>
                            </mask>
                            <use id="Mask" stroke="none" fill="#FFB8B8" fill-rule="evenodd" sketch:type="MSShapeGroup"
                                 xlink:href="#path-3"></use>
                            <ellipse id="Oval-31" stroke="none" fill="#515151" fill-rule="evenodd"
                                     sketch:type="MSShapeGroup" mask="url(#mask-4)" cx="15.365" cy="39.5639112"
                                     rx="2.53856522" ry="2.53631523"></ellipse>
                            <path d="M27.7414075,25.5042794 C36.4329359,22.3968847 48.7436707,24.852025 49.7260353,25.6229714 C51.7125404,27.5909284 49.1252792,28.8179422 47.9227072,28.3552988 C43.1763526,26.5293208 32.2300815,27.070757 28.9680512,28.3328299 C26.7506285,28.6467943 26.1153718,26.6389502 27.7414075,25.5042794 L27.7414075,25.5042794 Z"
                                  id="Path-79" stroke="none" fill="#E27A7A" fill-rule="evenodd"
                                  sketch:type="MSShapeGroup" mask="url(#mask-4)"></path>
                            <path d="M0.606331233,55.1748278 C6.43172052,61.5620114 39.3102893,76.4821253 70.4940157,57.7096903 C70.4940157,57.7096903 101.725435,69.8464533 79.6604221,69.0461439 C57.5954087,68.2458344 72.3696447,87.0713567 72.3696447,87.0713567 L66.9432393,94.3021149 L24.2931831,95.1702772 L2.22251342,85.2257754 L-8.92780354,64.3250763 C-8.92780354,64.3250763 -6.06844575,58.4865491 0.606331233,55.1748278 Z"
                                  id="Path-80" stroke="none" fill-opacity="0.7" fill="#EE8989" fill-rule="evenodd"
                                  sketch:type="MSShapeGroup" mask="url(#mask-4)"></path>
                            <ellipse id="Oval-31" stroke="none" fill="#FFD600" fill-rule="evenodd"
                                     sketch:type="MSShapeGroup" cx="38.6129131" cy="8.59416737" rx="7.61569566"
                                     ry="7.60894569"></ellipse>
                        </g>
                    </g>
                </g>
            </g>
        </g>
    </g>
</svg>