<?xml version="1.0" encoding="UTF-8" standalone="no"?>
<svg xmlns:xlink="http://www.w3.org/1999/xlink" xmlns:sketch="http://www.bohemiancoding.com/sketch/ns" width="173px" height="173px" viewBox="0 0 173 173"
     version="1.1" xmlns="http://www.w3.org/2000/svg">
    <!-- Generator: Sketch 3.3.2 (12043) - http://www.bohemiancoding.com/sketch -->
    <title>3</title>
    <desc>Created with Sketch.</desc>
    <defs>
        <path id="path-1"
              d="M86.0206911,172.790912 C133.528607,172.790912 172.041382,134.278137 172.041382,86.7702213 C172.041382,39.2623054 133.528607,0.749530213 86.0206911,0.749530213 C38.5127752,0.749530213 1.42108547e-14,39.2623054 1.42108547e-14,86.7702213 C1.42108547e-14,134.278137 38.5127752,172.790912 86.0206911,172.790912 Z"></path>
    </defs>
    <g id="Page-1" stroke="none" stroke-width="1" fill="none" fill-rule="evenodd" sketch:type="MSPage">
        <g id="随手出" sketch:type="MSArtboardGroup" transform="translate(-332.000000, -75.000000)">
            <g id="Group" sketch:type="MSLayerGroup">
                <g id="3" transform="translate(332.019704, 74.876847)">
                    <mask id="mask-2" sketch:name="Mask" fill="white">
                        <use xlink:href="#path-1"></use>
                    </mask>
                    <use id="Mask" fill="#DB3423" sketch:type="MSShapeGroup" xlink:href="#path-1"></use>
                    <path d="M128.766402,35.8728493 C128.766402,35.8728493 178.614383,84.0827651 182.926323,88.0928413 C182.727772,89.7630888 176.711967,88.8339881 176.608577,90.6369352 C174.687381,124.139136 192.428473,170.69902 169.284279,186.611856 C148.536677,200.876911 98.391451,179.902214 86.6793298,177.708618 L40.1568406,138.322119 L77.1673471,77.1894574 L128.766402,35.8728493 Z"
                          id="Path-47" fill="#BE0000" sketch:type="MSShapeGroup" mask="url(#mask-2)"></path>
                    <g id="Account-Paper" transform="translate(37.252533, 31.824519)" sketch:type="MSShapeGroup">
                        <path d="M89.6825515,0.648046044 C89.6825515,0.648046044 84.6083207,0.502893803 84.6083206,4.34720464 C84.6083207,6.77846509 84.104151,102.176442 84.0129513,104.661652 C83.9219412,107.141694 81.0460277,107.934752 81.0460277,107.934752 C81.0460277,107.934752 46.8910083,107.644142 46.8108577,107.644142 C8.38332651,107.644142 4.70139092,107.775813 2.8015023,107.644145 C0.901613689,107.512476 8.19428039e-09,105.890269 7.9672563e-09,104.399996 C1.00884243e-17,104.399996 8.3063131e-09,96.9307089 8.3063131e-09,96.9307089 L9.60944042,96.9307078 C9.60944042,96.9307078 9.44257169,5.60164619 9.44257166,4.7636952 C9.44257169,1.21430109 10.0290392,0.256241318 13.260929,6.39488462e-14 L89.6825515,0.648046044 Z"
                              id="Path-75" fill="#FFFFFF"></path>
                        <path d="M93.6230389,3.76341721 C91.5499216,-1.82285511 84.5059542,1.23229678 84.6821492,3.91984377 C84.6821492,5.89909039 84.5059542,34.5258347 84.5059542,34.5258347 L97.9951043,34.7452062 C97.9951043,34.7452062 93.6169287,32.72759 93.6169289,31.293549 C93.6169287,29.5515763 93.6169287,7.05428307 93.6230389,3.76341721 Z"
                              id="Path-76" fill="#D2D4D3"></path>
                        <path d="M103.60722,19.6276348 L93.7175298,19.6276348 L93.7175298,31.9776553 C93.7175298,33.9395464 100.904521,37.0382661 103.60722,31.9776553 L103.60722,19.6276348 Z"
                              id="Path-77" fill="#F2FCFD"></path>
                        <path d="M17.0719144,15.3339457 L32.1924242,15.3339457" id="Line" stroke="#736D7A"
                              stroke-width="3" stroke-linecap="square"></path>
                        <path d="M18.1335879,21.5821472 L18.1335879,63.5769324" id="Line-Copy-2" stroke="#736D7A"
                              stroke-width="3" stroke-linecap="square"></path>
                        <path d="M51.2823977,21.5821472 L51.2823977,63.5769324" id="Line-Copy-3" stroke="#736D7A"
                              stroke-width="3" stroke-linecap="square"></path>
                        <path d="M63.3057807,21.5821472 L63.3057807,63.5769324" id="Line-Copy-4" stroke="#736D7A"
                              stroke-width="3" stroke-linecap="square"></path>
                        <path d="M74.2539414,21.5821472 L74.2539414,63.5769324" id="Line-Copy-5" stroke="#736D7A"
                              stroke-width="3" stroke-linecap="square"></path>
                        <path d="M35.6679149,15.3339457 L40.9157952,15.3339457" id="Line-Copy" stroke="#736D7A"
                              stroke-width="3" stroke-linecap="square"></path>
                        <path d="M18.1335879,21.5821472 L74.6461621,21.5821472" id="Line-Copy-6" stroke="#736D7A"
                              stroke-width="3" stroke-linecap="square"></path>
                        <path d="M18.1335879,28.6046024 L74.6461621,28.6046024" id="Line-Copy-7" stroke="#736D7A"
                              stroke-width="3" stroke-linecap="square"></path>
                        <path d="M18.1335879,35.3304108 L74.6461621,35.3304108" id="Line-Copy-8" stroke="#736D7A"
                              stroke-width="3" stroke-linecap="square"></path>
                        <path d="M18.1335879,41.9943352 L74.6461621,41.9943352" id="Line-Copy-9" stroke="#736D7A"
                              stroke-width="3" stroke-linecap="square"></path>
                        <path d="M18.1335879,49.6019949 L74.6461621,49.6019949" id="Line-Copy-10" stroke="#736D7A"
                              stroke-width="3" stroke-linecap="square"></path>
                        <path d="M18.1335879,56.2982672 L74.6461621,56.2982672" id="Line-Copy-11" stroke="#736D7A"
                              stroke-width="3" stroke-linecap="square"></path>
                        <path d="M18.1335879,63.5769324 L74.6461621,63.5769324" id="Line-Copy-12" stroke="#736D7A"
                              stroke-width="3" stroke-linecap="square"></path>
                        <path d="M55.4547468,69.7579728 L74.646163,69.7579728" id="Line-Copy-13" stroke="#736D7A"
                              stroke-width="3" stroke-linecap="square"></path>
                        <path d="M61.8518856,74.4396096 L74.646163,74.4396096" id="Line-Copy-14" stroke="#736D7A"
                              stroke-width="3" stroke-linecap="square"></path>
                        <path d="M75.4440521,81.4198307 L70.8574405,81.4198307 C69.2238329,81.5470417 69.2933373,84.4763766 70.8574405,84.6664299 L74.0017397,84.6664299 C75.7055891,84.77508 75.665322,88.3853907 73.6490108,88.1281527 C71.2667524,88.1330493 69.1958204,88.1281527 69.1958204,88.1281527"
                              id="Path-93" stroke="#736D7A" stroke-width="2"></path>
                        <path d="M72.6107098,79.7064509 L72.6107098,89.654929" id="Line" stroke="#736D7A"
                              stroke-width="2" stroke-linecap="square"></path>
                    </g>
                </g>
            </g>
        </g>
    </g>
</svg>