<?xml version="1.0" encoding="UTF-8" standalone="no"?>
<svg width="113px" height="179px" viewBox="0 0 113 179" version="1.1" xmlns="http://www.w3.org/2000/svg" xmlns:xlink="http://www.w3.org/1999/xlink" xmlns:sketch="http://www.bohemiancoding.com/sketch/ns">
    <!-- Generator: Sketch 3.3.2 (12043) - http://www.bohemiancoding.com/sketch -->
    <title>手</title>
    <desc>Created with Sketch.</desc>
    <defs></defs>
    <g id="Page-1" stroke="none" stroke-width="1" fill="none" fill-rule="evenodd" sketch:type="MSPage">
        <g id="随手出" sketch:type="MSArtboardGroup" transform="translate(-241.000000, -245.000000)">
            <g id="Group" sketch:type="MSLayerGroup">
                <g id="手＋鼠标" sketch:type="MSShapeGroup">
                    <g id="手" transform="translate(240.394089, 245.320197)">
                        <path d="M94.3680662,176.063341 C94.3680662,176.063341 104.054851,174.631198 112.322755,159.812228 C114.067779,143.973433 113.097624,47.0746944 112.32276,36.6277771 C109.300967,26.7728755 101.967177,29.2374613 100.045375,36.1431094 C98.1367596,86.9409974 94.3680654,80.0760561 92.8580859,82.7096743 C92.8580859,82.7096743 87.5190358,68.9570679 87.5190339,16.956423 C83.0373852,6.31222991 75.2444389,12.143083 74.5867838,16.3563583 C73.2314665,65.8759207 71.2745691,73.5189386 71.2745691,73.5189386 C71.2745691,73.5189386 69.033249,33.7149197 69.0332458,7.11464104 C64.4212675,-6.23901778 53.9129267,2.44411402 53.9129267,7.11464092 C53.9129267,32.9875597 50.3756848,80.0760566 50.3756848,80.0760566 C50.3756848,80.0760566 46.8608086,59.0446748 38.7262577,12.1430828 C35.3473889,3.42089812 25.9459719,4.47523321 24.0592729,12.143083 C30.0266311,45.1985433 29.3523227,116.585896 29.3523219,127.499124 C13.3618442,130.413517 19.0119757,113.222664 19.0119757,113.222664 C19.0119757,113.222664 23.6614662,102.068573 21.4113093,96.2389807 C14.0222262,89.7335986 12.2735887,92.7929997 7.23673599,98.4676866 C-0.619244521,110.843044 -0.0362048635,119.398216 2.28440207,127.499119 C3.48840414,136.605617 43.3236983,178.325123 43.3236983,178.325123 L93.3989997,177.314628" id="Path-74" fill="#FEE3C6"></path>
                        <path d="M12.1604311,94.4089183 L14.2940863,101.766693 L7.42795085,99.6941065 L12.1604311,94.4089183 Z" id="Path-75" fill="#FFFFFF"></path>
                        <path d="M45.9407217,86.1759188 L48.9847602,89.3596981 L46.3861201,92.5416395 L43.2323467,88.9950056 L45.9407217,86.1759188 Z" id="Path-67" fill="#EDC6AB"></path>
                        <path d="M62.6894902,84.30864 L65.7335287,87.4924193 L63.1348886,90.6743607 L59.9811152,87.1277269 L62.6894902,84.30864 Z" id="Path-67-Copy" fill="#EDC6AB"></path>
                        <path d="M81.408702,84.30864 L84.4527405,87.4924193 L81.8541004,90.6743607 L78.700327,87.1277269 L81.408702,84.30864 Z" id="Path-67-Copy-2" fill="#EDC6AB"></path>
                        <path d="M101.764591,89.7613159 L104.433498,92.5527425 L102.155101,95.3425576 L99.3899822,92.2329929 L101.764591,89.7613159 Z" id="Path-67-Copy-3" fill="#EDC6AB"></path>
                    </g>
                </g>
            </g>
        </g>
    </g>
</svg>