<?xml version="1.0" encoding="UTF-8" standalone="no"?>
<svg xmlns:xlink="http://www.w3.org/1999/xlink" xmlns:sketch="http://www.bohemiancoding.com/sketch/ns" width="131px" height="136px" viewBox="0 0 131 136"
     version="1.1" xmlns="http://www.w3.org/2000/svg">
    <!-- Generator: Sketch 3.3.2 (12043) - http://www.bohemiancoding.com/sketch -->
    <title>1</title>
    <desc>Created with Sketch.</desc>
    <defs>
        <ellipse id="path-1" cx="64.9947479" cy="67.1634474" rx="64.9947479" ry="67.1634474"></ellipse>
    </defs>
    <g id="Page-1" stroke="none" stroke-width="1" fill="none" fill-rule="evenodd" sketch:type="MSPage">
        <g id="随手审" sketch:type="MSArtboardGroup" transform="translate(-63.000000, -271.000000)">
            <g id="Group" sketch:type="MSLayerGroup">
                <g id="1" transform="translate(63.054187, 271.921182)">
                    <mask id="mask-2" sketch:name="Mask" fill="white">
                        <use xlink:href="#path-1"></use>
                    </mask>
                    <use id="Mask" fill="#E3A630" sketch:type="MSShapeGroup" xlink:href="#path-1"></use>
                    <path d="M135.57579,57.705021 C155.040218,110.164347 110.492028,132.026967 74.2500414,133.14602 C50.6657357,122.800327 29.9279912,113.172918 29.9279912,113.172918 C29.9279912,113.172918 31.9083771,83.5449617 46.14109,57.3290464 C52.9066842,59.9137604 61.5780252,63.4319753 68.3381196,65.5865368 C75.0982139,67.7410983 73.232326,60.370778 75.6293606,55.5646228 C83.3190247,40.1465231 92.4187673,35.3946945 92.4187673,35.3946945 C92.4187673,35.3946945 114.640644,46.8500665 135.57579,57.705021 L135.57579,57.705021 Z"
                          id="Rectangle-6" fill="#B48428" sketch:type="MSShapeGroup" mask="url(#mask-2)"></path>
                    <g id="审批本" mask="url(#mask-2)" sketch:type="MSShapeGroup">
                        <g transform="translate(31.556071, 12.444538)">
                            <rect id="Rectangle-28-Copy" stroke="none" fill="#D42734" fill-rule="evenodd" x="0"
                                  y="10.7167059" width="68.8496088" height="91.7617941" rx="8"></rect>
                            <rect id="Rectangle-28" stroke="none" fill="#FF4D4D" fill-rule="evenodd" x="2.00532841"
                                  y="10.7167059" width="66.8442804" height="89.7524118" rx="8"></rect>
                            <rect id="Rectangle-30" stroke="none" fill="#FFFFFF" fill-rule="evenodd" x="7.64995653"
                                  y="21.0801504" width="54.2274225" height="73.7431363"></rect>
                            <rect id="Rectangle-31" stroke="#6F6F6F" stroke-width="1.5" fill="none" x="14.6604235"
                                  y="27.977241" width="15.3914587" height="15.7706184" rx="3"></rect>
                            <path d="M13.5328259,35.3914494 L15.5852883,32.6942132 L20.4998156,37.8298413 L32.1907982,28.0251042 L20.9069788,41.067124 L13.5328259,35.3914494 Z"
                                  id="Path-71" stroke="none" fill="#F46741" fill-rule="evenodd"></path>
                            <rect id="Rectangle-31-Copy" stroke="#6F6F6F" stroke-width="1.5" fill="none" x="14.6604235"
                                  y="49.2675759" width="15.3914587" height="15.7706184" rx="3"></rect>
                            <rect id="Rectangle-31-Copy-2" stroke="#6F6F6F" stroke-width="1.5" fill="none"
                                  x="14.6604235" y="71.2088907" width="15.3914587" height="15.7706184" rx="3"></rect>
                            <path d="M13.5328259,56.6817843 L15.5852883,53.9845481 L20.4998156,59.1201761 L32.1907982,49.3154391 L20.9069788,62.3574588 L13.5328259,56.6817843 Z"
                                  id="Path-71-Copy" stroke="none" fill="#F46741" fill-rule="evenodd"></path>
                            <path d="M7.64995653,81.748374 L21.682627,94.8232867 L19.5291407,81.7897991 L7.64995653,81.748374 Z"
                                  id="Path-74" stroke="none" fill="#DEDBDB" fill-rule="evenodd"></path>
                            <rect id="Rectangle-35" stroke="none" fill="#D8D8D8" fill-rule="evenodd" x="34.5387313"
                                  y="31.7589105" width="22.3368893" height="2.00938235"></rect>
                            <rect id="Rectangle-35-Copy" stroke="none" fill="#D8D8D8" fill-rule="evenodd" x="34.5387313"
                                  y="38.4568516" width="22.3368893" height="2.00938235"></rect>
                            <rect id="Rectangle-35-Copy-2" stroke="none" fill="#D8D8D8" fill-rule="evenodd"
                                  x="34.5387313" y="53.7080044" width="22.3368893" height="2.00938235"></rect>
                            <rect id="Rectangle-35-Copy-3" stroke="none" fill="#D8D8D8" fill-rule="evenodd"
                                  x="34.5387313" y="60.4059456" width="18.9872387" height="2.00938235"></rect>
                            <rect id="Rectangle-35-Copy-5" stroke="none" fill="#D8D8D8" fill-rule="evenodd"
                                  x="34.5387313" y="75.4733496" width="22.3368893" height="2.00938235"></rect>
                            <rect id="Rectangle-35-Copy-6" stroke="none" fill="#D8D8D8" fill-rule="evenodd"
                                  x="34.5387313" y="81.8215752" width="15.3914587" height="2.00938235"></rect>
                            <path d="M15.8813724,13.6232716 C17.1052964,5.79584239 26.8851116,6.07938525 26.8851116,6.07938525 C30.3346784,-2.69266625 40.8091504,-0.606270777 42.3575146,5.79584229 C52.6405503,5.47502613 52.8080382,13.5632755 52.8080382,13.5632755 C52.8080382,13.5632755 18.6780246,13.5632757 15.8813724,13.6232716 Z"
                                  id="Path-75-Copy" stroke="none" fill="#4C9CA9" fill-rule="evenodd"></path>
                            <path d="M16.5498152,14.0899308 C17.7737392,6.77256805 27.5535544,7.03763412 27.5535544,7.03763412 C31.0031212,-1.16279557 41.4775932,0.787642063 43.0259574,6.77256796 C53.3089931,6.47265745 53.476481,14.0338443 53.476481,14.0338443 C53.476481,14.0338443 19.3464674,14.0338445 16.5498152,14.0899308 Z"
                                  id="Path-75" stroke="none" fill="#62C5D4" fill-rule="evenodd"></path>
                            <ellipse id="Oval-27-Copy" stroke="none" fill="#4C9CA9" fill-rule="evenodd" cx="35.0932472"
                                     cy="6.36304412" rx="2.33954981" ry="2.34427941"></ellipse>
                            <ellipse id="Oval-27" stroke="none" fill="#FFFFFF" fill-rule="evenodd" cx="34.7590258"
                                     cy="6.02814706" rx="2.00532841" ry="2.00938235"></ellipse>
                        </g>
                    </g>
                </g>
            </g>
        </g>
    </g>
</svg>