<?xml version="1.0" encoding="UTF-8" standalone="no"?>
<svg xmlns:sketch="http://www.bohemiancoding.com/sketch/ns" width="107px" height="106px" viewBox="0 0 107 106" version="1.1"
     xmlns="http://www.w3.org/2000/svg">
    <!-- Generator: Sketch 3.3.2 (12043) - http://www.bohemiancoding.com/sketch -->
    <title>2</title>
    <desc>Created with Sketch.</desc>
    <defs></defs>
    <g id="Page-1" stroke="none" stroke-width="1" fill="none" fill-rule="evenodd" sketch:type="MSPage">
        <g id="随手审" sketch:type="MSArtboardGroup" transform="translate(-149.000000, -99.000000)">
            <g id="Group" sketch:type="MSLayerGroup">
                <g id="2" transform="translate(149.753695, 99.507389)" sketch:type="MSShapeGroup">
                    <circle id="Oval-3" fill="#E3A630" cx="52.7093596" cy="52.7093596" r="52.7093596"></circle>
                    <path d="M61.7556334,30.129009 C61.7556334,30.129009 87.7052329,48.3343913 104.939595,60.2889883 C98.8272396,90.9490987 79.0669568,100.169369 68.2385542,102.951717 C50.0397015,90.9289709 27.7654842,75.7801793 27.7654842,75.7801793 C27.7654842,75.7801793 33.9117974,69.0915612 35.1010105,69.7175468"
                          id="Path-9" fill="#B48428"></path>
                    <path d="M26.9022949,76.1236434 C26.9022949,76.1236434 33.6179593,71.2932593 33.6179596,65.9258128 C27.8802421,63.4062837 23.8015432,57.7463543 23.0009834,51.5461048 C21.6287957,40.9186591 29.3218635,28.7741919 50.7101542,28.6443958 C53.3603899,28.6283127 56.1516677,29.0104608 59.2423133,29.3849629 C69.5695245,31.1754113 77.0407963,37.9859965 78.7297071,45.7387227 C81.3653711,57.837397 71.3081117,71.9062466 46.7289028,70.2773239 C36.4660226,78.0612301 26.9022949,76.1236434 26.9022949,76.1236434 Z"
                          id="对话框" fill="#FFFFFF"></path>
                </g>
            </g>
        </g>
    </g>
</svg>