<?xml version="1.0" encoding="UTF-8" standalone="no"?>
<svg xmlns:sketch="http://www.bohemiancoding.com/sketch/ns" width="161px" height="162px" viewBox="0 0 161 162" version="1.1"
     xmlns="http://www.w3.org/2000/svg">
    <!-- Generator: Sketch 3.3.2 (12043) - http://www.bohemiancoding.com/sketch -->
    <title>3</title>
    <desc>Created with Sketch.</desc>
    <defs></defs>
    <g id="Page-1" stroke="none" stroke-width="1" fill="none" fill-rule="evenodd" sketch:type="MSPage">
        <g id="随手审" sketch:type="MSArtboardGroup" transform="translate(-353.000000, -84.000000)">
            <g id="Group" sketch:type="MSLayerGroup">
                <g id="3" transform="translate(353.694581, 84.729064)" sketch:type="MSShapeGroup">
                    <circle id="Oval-3-Copy" fill="#E4A730" cx="80.2292413" cy="80.0005644" r="80.0005644"></circle>
                    <path d="M116.532213,46.7877379 C116.532213,46.7877379 155.519319,85.0750289 159.702927,88.9657577 C152.721643,147.693485 94.7982969,164.331133 70.0764031,159.7009 L35.1380981,126.558192 L71.0471015,67.2449553 L116.532213,46.7877379 Z"
                          id="Path-47" fill="#A87B25"></path>
                    <g id="Pen" transform="translate(32.000226, 34.781054)">
                        <path d="M63.0045578,0.184275758 L84.5059134,11.212577 L68.7218985,26.8761526 L47.3826746,16.0095598 L63.0045578,0.184275758 Z"
                              id="Path-43" fill="#52D3FF"></path>
                        <path d="M68.6331297,26.9137316 L78.7874423,48.2664065 L95.7956477,31.6333966 L84.4296654,11.2013312 L68.6331297,26.9137316 L68.6331297,26.9137316 Z"
                              id="Path-43-Copy" fill="#239CC7"></path>
                        <path d="M68.6675288,26.8030758 C68.6675288,26.8030758 55.6541455,39.7338097 52.8905274,42.2484957 C59.2087849,50.2126998 50.8071051,57.1781008 45.2851219,55.1183304 C36.4115606,62.9981566 27.1007381,70.4027387 18.2271769,78.2825649 C12.8727367,83.0373705 3.20342147,92.4528126 3.20342147,92.4528126 C3.20342147,92.4528126 7.04915444,95.0073192 9.82439776,94.6648705 C11.2639466,94.4872386 13.5187535,93.249974 14.6597743,91.4877301 C15.800795,89.7254862 15.9140095,85.5602605 15.9140095,85.5602605 L63.4929597,73.8300824 C63.4929597,73.8300824 63.1484404,66.8845917 65.0969015,63.6459657 C68.2762924,58.3613552 78.8765158,48.2603729 78.8765158,48.2603729 L68.6675288,26.8030758 Z"
                              id="Path-45" fill="#D8D8D8"></path>
                        <path d="M68.7111174,26.8672923 L47.6722321,15.9855045 C47.6722321,15.9855045 37.3837502,25.9651329 31.5851012,29.4334723 C28.7239154,31.1448301 21.6927278,31.5245961 21.6927278,31.5245961 L9.90024285,79.4100364 C9.90024285,79.4100364 6.57690168,78.9003588 4.00105796,80.2217243 C2.33253362,81.0776499 0.118457868,83.5713451 0.537684603,86.3470605 C0.952080793,89.0907926 2.92086092,92.0536401 2.92086092,92.0536401 C2.92086092,92.0536401 11.5660521,83.3424556 15.5067804,78.9003588 C23.9972923,69.3296209 31.7240695,59.5858738 40.2145814,50.015136 C37.6342558,40.7686383 47.5136621,37.2360328 52.9115548,42.2444025 L68.7111174,26.8672923 Z"
                              id="Path-46" fill="#FFFFFF"></path>
                    </g>
                </g>
            </g>
        </g>
    </g>
</svg>