<?xml version="1.0" encoding="UTF-8" standalone="no"?>
<svg width="108px" height="108px" viewBox="0 0 108 108" version="1.1" xmlns="http://www.w3.org/2000/svg" xmlns:xlink="http://www.w3.org/1999/xlink" xmlns:sketch="http://www.bohemiancoding.com/sketch/ns">
    <!-- Generator: Sketch 3.3.2 (12043) - http://www.bohemiancoding.com/sketch -->
    <title>4</title>
    <desc>Created with Sketch.</desc>
    <defs></defs>
    <g id="Page-1" stroke="none" stroke-width="1" fill="none" fill-rule="evenodd" sketch:type="MSPage">
        <g id="随手审" sketch:type="MSArtboardGroup" transform="translate(-394.000000, -319.000000)">
            <g id="Group" sketch:type="MSLayerGroup">
                <g id="4" transform="translate(394.088670, 319.211823)" sketch:type="MSShapeGroup">
                    <circle id="Oval-3-Copy-2" fill="#E3A630" cx="53.9497807" cy="53.8173953" r="53.8173953"></circle>
                    <path d="M76.3690972,21.2953173 C76.3690972,21.2953173 93.4640311,39.128348 107.767176,54.8054701 C107.767176,85.6880195 80.429391,110.417378 50.9114986,107.38231 C47.6135814,103.37217 40.5760144,97.6748217 35.2700804,91.2601229 C39.3839346,82.9347441 45.969961,80.1789585 44.3337182,77.9686719 C33.1579433,62.872095 22.2700605,47.9082598 22.2700605,47.9082598 L76.3690972,21.2953173 Z" id="Path-21" fill="#B48428"></path>
                    <g id="receipt" transform="translate(21.959033, 19.914951)">
                        <path d="M66.8344701,74.1146429 L58.1750901,66.742966 L49.5506214,74.062369 L40.4899613,66.4595322 L32.0855756,74.4546683 L23.1918406,66.4739197 L14.5668751,74.0623717 L14.5668751,7.33652738 C13.5480857,1.6056116 8.12415783,1.17315378 8.12415783,1.17315378 C8.12415783,1.17315378 59.9887326,1.17315378 59.9887326,1.17315378 C65.1198076,2.10359909 66.8344688,5.81537149 66.8344701,8.47999122 L66.8344701,74.1146429 Z" id="Path-37" fill="#FFFFFF"></path>
                        <rect id="Rectangle-13" fill="#59C6EC" x="20.51771" y="13.2357528" width="40.5802762" height="3.22608415"></rect>
                        <rect id="Rectangle-13-Copy" fill="#59C6EC" x="20.51771" y="23.3748744" width="40.5802762" height="3.22608415"></rect>
                        <rect id="Rectangle-13-Copy-2" fill="#59C6EC" x="20.51771" y="33.0531268" width="40.5802762" height="3.22608415"></rect>
                        <rect id="Rectangle-13-Copy-3" fill="#59C6EC" x="20.51771" y="43.6531176" width="19.0966006" height="3.22608415"></rect>
                        <rect id="Rectangle-13-Copy-4" fill="#59C6EC" x="20.51771" y="51.0270242" width="19.0966006" height="3.22608415"></rect>
                        <path d="M57.1126209,46.2424344 C58.0447627,39.7912896 45.6087886,38.4901966 45.6953904,46.1413251 C45.9185027,50.8363705 50.2134966,51.0843481 53.09168,55.1334255 C54.6003609,58.7445794 48.2573004,60.0369027 49.3003156,54.8756836 C49.3003156,54.8756836 46.6098775,54.8321484 45.6087886,54.8756836 C44.190318,60.4898833 52.2245621,63.4362804 56.3254194,58.9449685 C57.084353,57.8966399 57.2073073,56.5691182 57.0843528,54.8321482 C56.570057,51.5872344 49.40608,48.206632 49.501495,46.1413253 C49.3003157,42.4808176 53.9735706,43.406876 53.317695,46.2424344 C53.317695,46.2424344 55.0427297,46.2424344 57.1126209,46.2424344 Z" id="Path-38" fill="#293744"></path>
                        <rect id="Rectangle-18" fill="#293744" x="50.5948559" y="38.5835568" width="1.43224504" height="24.4260657"></rect>
                        <path d="M1.09017761,28.7066384 C1.09017761,28.7066384 0.998198177,9.2217829 0.998198177,7.29858811 C2.26909157,1.64629447 6.68228046,1.04633379 7.97130774,1.04633379 C10.9483949,1.04633379 14.4258233,4.53700095 14.6228136,7.29858803 C14.6228136,7.38392945 14.6228136,7.46927087 14.6228136,7.55461229 C14.6228135,14.606038 14.6228133,28.7088895 14.6228133,28.7088895 L1.09017761,28.7066384 Z" id="Path-39" fill="#D8D8D8"></path>
                        <path d="M8.45426086,1.27580642 C8.46522323,1.28281744 12.2925447,3.33672526 12.912615,6.8468825 L13.0836388,28.518522 L14.6650836,28.5484627 C14.6650836,28.5484627 14.5406708,8.80129554 14.5406708,6.69667163 C13.6484832,3.40374573 11.2744907,1.50700963 8.45426086,1.27580642 Z" id="Path-40" fill="#A4A5A7"></path>
                    </g>
                </g>
            </g>
        </g>
    </g>
</svg>