<?xml version="1.0" encoding="UTF-8" standalone="no"?>
<svg xmlns:sketch="http://www.bohemiancoding.com/sketch/ns" width="37px" height="108px" viewBox="0 0 37 108" version="1.1"
     xmlns="http://www.w3.org/2000/svg">
    <!-- Generator: Sketch 3.3.2 (12043) - http://www.bohemiancoding.com/sketch -->
    <title>手指</title>
    <desc>Created with Sketch.</desc>
    <defs></defs>
    <g id="Page-1" stroke="none" stroke-width="1" fill="none" fill-rule="evenodd" sketch:type="MSPage">
        <g id="随手审" sketch:type="MSArtboardGroup" transform="translate(-331.000000, -263.000000)" fill="#FCDAA9">
            <g id="Group" sketch:type="MSLayerGroup">
                <g id="手＋手机" transform="translate(211.822660, 219.704433)" sketch:type="MSShapeGroup">
                    <g id="手指" transform="translate(119.958436, 42.551185)">
                        <path d="M26.3184698,0.869366412 C24.5833149,2.45902255 7.50375124,18.7147865 3.05880419,23.7426219 C-1.82570284,28.1885056 -1.64123109,40.8374397 9.91203889,36.4199757 C26.736968,23.0877003 27.7238521,23.7957931 31.3105492,20.0713918 C36.4545833,15.8681006 38.3375911,-0.266155957 26.3184698,0.869366412 L26.3184698,0.869366412 Z"
                              id="Path-2"></path>
                        <path d="M24.756839,34.8998093 C23.183343,36.0478308 7.64995855,47.8313151 3.54834005,51.5312213 C-0.878941541,54.739866 -1.66122727,64.7987809 8.35879924,62.0531639 C23.4619783,52.5749154 24.2374818,53.2025168 27.5224996,50.4812104 C32.1495433,47.482392 34.924567,34.7917245 24.756839,34.8998093 L24.756839,34.8998093 Z"
                              id="Path-2-Copy"></path>
                        <path d="M25.3466035,61.8917485 C23.843692,62.8087923 8.97786254,72.2832948 5.01429465,75.3358843 C0.787010066,77.8960111 -0.576412024,87.2334193 8.69764925,85.6667836 C23.0232388,78.3070383 23.686446,78.9721715 26.8451823,76.753834 C31.2401746,74.4101219 34.5834417,62.8087923 25.3466035,61.8917485 Z"
                              id="Path-2-Copy-2"></path>
                        <path d="M25.3470647,88.4658422 C23.8437902,89.0729035 8.91704243,95.475127 4.86246979,97.7005788 C0.636900692,99.3891013 -1.93468593,108.31608 6.76049609,108.600093 C20.8933751,104.17408 21.4048226,104.95975 24.605638,103.397336 C28.9536912,101.954976 33.6555407,91.1884693 25.3470647,88.4658422 L25.3470647,88.4658422 Z"
                              id="Path-2-Copy-3"></path>
                    </g>
                </g>
            </g>
        </g>
    </g>
</svg>