<?xml version="1.0" encoding="UTF-8" standalone="no"?>
<svg width="157px" height="380px" viewBox="0 0 157 380" version="1.1" xmlns="http://www.w3.org/2000/svg" xmlns:xlink="http://www.w3.org/1999/xlink" xmlns:sketch="http://www.bohemiancoding.com/sketch/ns">
    <!-- Generator: Sketch 3.3.2 (12043) - http://www.bohemiancoding.com/sketch -->
    <title>手＋手机</title>
    <desc>Created with Sketch.</desc>
    <defs></defs>
    <g id="Page-1" stroke="none" stroke-width="1" fill="none" fill-rule="evenodd" sketch:type="MSPage">
        <g id="随手审" sketch:type="MSArtboardGroup" transform="translate(-211.000000, -220.000000)">
            <g id="Group" sketch:type="MSLayerGroup">
                <g id="手＋手机" transform="translate(211.822660, 219.704433)" sketch:type="MSShapeGroup">
                    <g id="手掌" transform="translate(13.793103, 0.000000)">
                        <path d="M65.0246305,164.581063 L65.0246283,178.204629 L65.0246283,191.300574 L2.43178521,191.300575 L0.946584798,128.387114" id="Path-6" fill="#EDC6AB"></path>
                        <path d="M35.9539337,26.6305079 C35.9539337,26.6305079 30.8820126,45.9341664 27.0430659,63.6377395 C27.0430659,65.5118955 27.1986279,72.8387893 35.953934,72.8387893 C75.7977169,68.5435078 125.406906,47.772669 125.406906,47.772669 L128.611087,131.196708 C128.611087,131.196708 50.5333025,180.571834 46.5294639,182.480491 C39.3222568,186.460088 35.8052111,182.480491 34.1498505,182.480491 C13.7541638,170.694076 0.727506304,137.822615 0.727506304,127.816416 C0.727506304,93.4880009 19.8340151,11.1641568 25.9874507,2.51629918 C36.2518201,-4.72999217 36.2518191,15.0963885 36.2518191,15.0963885" id="Path-7" fill="#FCE0B8"></path>
                    </g>
                    <g id="手机" transform="translate(49.261084, 1.970443)">
                        <rect id="Rectangle-1" fill="#383838" x="0" y="0" width="94.4017921" height="160.003037" rx="5"></rect>
                        <rect id="Rectangle-1-Copy" fill="#FFFFFF" x="7.8817734" y="16.0003037" width="78.1494538" height="121.602308"></rect>
                        <path d="M38.9162562,10.3448276 L55.6650246,10.3448276" id="Line" stroke="#FFFFFF" stroke-linecap="square"></path>
                    </g>
                    <ellipse id="Oval-23-Copy" fill="#D8D8D8" cx="96.5517241" cy="81.1656542" rx="29.5566502" ry="28.6858752"></ellipse>
                    <path d="M83.9394325,77.2375982 L78.05905,83.1539375 L92.4662818,98.2610868 L118.226601,72.0136072 L111.907105,66.1223712 L92.8828007,85.5337277 L83.9394325,77.2375982 Z" id="Path-48" fill="#32BF41"></path>
                    <path d="M91.6875677,97.4699486 L93.4515035,99.2463085 L119.211823,72.9988289 L117.555243,71.4486865 L91.6875677,97.4699486 Z" id="Path-48-Copy" fill="#2E9639"></path>
                    <g id="手指" transform="translate(119.958436, 42.551185)" fill="#FCE0B8">
                        <path d="M26.3184698,0.869366412 C24.5833149,2.45902255 7.50375124,18.7147865 3.05880419,23.7426219 C-1.82570284,28.1885056 -1.64123109,40.8374397 9.91203889,36.4199757 C26.736968,23.0877003 27.7238521,23.7957931 31.3105492,20.0713918 C36.4545833,15.8681006 38.3375911,-0.266155957 26.3184698,0.869366412 L26.3184698,0.869366412 Z" id="Path-2"></path>
                        <path d="M24.756839,34.8998093 C23.183343,36.0478308 7.64995855,47.8313151 3.54834005,51.5312213 C-0.878941541,54.739866 -1.66122727,64.7987809 8.35879924,62.0531639 C23.4619783,52.5749154 24.2374818,53.2025168 27.5224996,50.4812104 C32.1495433,47.482392 34.924567,34.7917245 24.756839,34.8998093 L24.756839,34.8998093 Z" id="Path-2-Copy"></path>
                        <path d="M25.3466035,61.8917485 C23.843692,62.8087923 8.97786254,72.2832948 5.01429465,75.3358843 C0.787010066,77.8960111 -0.576412024,87.2334193 8.69764925,85.6667836 C23.0232388,78.3070383 23.686446,78.9721715 26.8451823,76.753834 C31.2401746,74.4101219 34.5834417,62.8087923 25.3466035,61.8917485 Z" id="Path-2-Copy-2"></path>
                        <path d="M25.3470647,88.4658422 C23.8437902,89.0729035 8.91704243,95.475127 4.86246979,97.7005788 C0.636900692,99.3891013 -1.93468593,108.31608 6.76049609,108.600093 C20.8933751,104.17408 21.4048226,104.95975 24.605638,103.397336 C28.9536912,101.954976 33.6555407,91.1884693 25.3470647,88.4658422 L25.3470647,88.4658422 Z" id="Path-2-Copy-3"></path>
                    </g>
                    <g id="袖子" transform="translate(0.000000, 191.015625)">
                        <path d="M0,0 L96.7500088,0 L96.7500088,261.328125 C49.5940707,261.328125 14.1040257,248.850037 0.787305668,242.978308 L0,0 Z" id="Rectangle-3" fill="#5A5374"></path>
                        <path d="M0,0 L50.4864387,0 L50.4864387,223.145574 C28.3025345,219.028527 14.5152421,216.2884 0,210.44907 L0,0 Z" id="Rectangle-3-Copy" fill="#4C4565"></path>
                    </g>
                </g>
            </g>
        </g>
    </g>
</svg>