<?xml version="1.0" encoding="UTF-8" standalone="no"?>
<svg width="129px" height="192px" viewBox="0 0 129 192" version="1.1" xmlns="http://www.w3.org/2000/svg" xmlns:xlink="http://www.w3.org/1999/xlink" xmlns:sketch="http://www.bohemiancoding.com/sketch/ns">
    <!-- Generator: Sketch 3.3.2 (12043) - http://www.bohemiancoding.com/sketch -->
    <title>手掌</title>
    <desc>Created with Sketch.</desc>
    <defs></defs>
    <g id="Page-1" stroke="none" stroke-width="1" fill="none" fill-rule="evenodd" sketch:type="MSPage">
        <g id="随手审" sketch:type="MSArtboardGroup" transform="translate(-226.000000, -220.000000)">
            <g id="Group" sketch:type="MSLayerGroup">
                <g id="手＋手机" transform="translate(211.822660, 219.704433)" sketch:type="MSShapeGroup">
                    <g id="手掌" transform="translate(13.793103, 0.000000)">
                        <path d="M65.0246305,164.581063 L65.0246283,178.204629 L65.0246283,191.300574 L2.43178521,191.300575 L0.946584798,128.387114" id="Path-6" fill="#EDC6AB"></path>
                        <path d="M35.9539337,26.6305079 C35.9539337,26.6305079 30.8820126,45.9341664 27.0430659,63.6377395 C27.0430659,65.5118955 27.1986279,72.8387893 35.953934,72.8387893 C75.7977169,68.5435078 125.406906,47.772669 125.406906,47.772669 L128.611087,131.196708 C128.611087,131.196708 50.5333025,180.571834 46.5294639,182.480491 C39.3222568,186.460088 35.8052111,182.480491 34.1498505,182.480491 C13.7541638,170.694076 0.727506304,137.822615 0.727506304,127.816416 C0.727506304,93.4880009 19.8340151,11.1641568 25.9874507,2.51629918 C36.2518201,-4.72999217 36.2518191,15.0963885 36.2518191,15.0963885" id="Path-7" fill="#FCE0B8"></path>
                    </g>
                </g>
            </g>
        </g>
    </g>
</svg>