<?xml version="1.0" encoding="UTF-8" standalone="no"?>
<svg width="122px" height="75px" viewBox="0 0 122 75" version="1.1" xmlns="http://www.w3.org/2000/svg" xmlns:xlink="http://www.w3.org/1999/xlink" xmlns:sketch="http://www.bohemiancoding.com/sketch/ns">
    <!-- Generator: Sketch 3.3.2 (12043) - http://www.bohemiancoding.com/sketch -->
    <title>Rectangle 6</title>
    <desc>Created with Sketch.</desc>
    <defs></defs>
    <g id="Page-1" stroke="none" stroke-width="1" fill="none" fill-rule="evenodd" sketch:type="MSPage">
        <g id="512" sketch:type="MSArtboardGroup" transform="translate(-25.000000, -218.000000)" fill="#FFFFFF">
            <path d="M25,218 L84.0909091,218 L84.0909091,293 L25,293 L25,218 Z M65.4054054,249.982942 L70.8353808,249.982942 L70.8353808,253.820896 L65.4054054,253.820896 L65.4054054,249.982942 Z M65.4054054,260.217484 L70.8353808,260.217484 L70.8353808,264.055437 L65.4054054,264.055437 L65.4054054,260.217484 Z M65.4054054,270.132196 L70.8353808,270.132196 L70.8353808,273.970149 L65.4054054,273.970149 L65.4054054,270.132196 Z M37.9361179,270.132196 L59.4963145,270.132196 L59.4963145,273.970149 L37.9361179,273.970149 L37.9361179,270.132196 Z M37.9361179,260.217484 L51.5110565,260.217484 L51.5110565,264.055437 L37.9361179,264.055437 L37.9361179,260.217484 Z M37.9361179,249.982942 L59.4963145,249.982942 L59.4963145,253.820896 L37.9361179,253.820896 L37.9361179,249.982942 Z M37.9361179,234.151386 L70.8353808,234.151386 L70.8353808,237.989339 L37.9361179,237.989339 L37.9361179,234.151386 Z M146.022727,218 L86.9318182,218 L86.9318182,293 L146.022727,293 L146.022727,218 Z M105.617322,249.982942 L100.187346,249.982942 L100.187346,253.820896 L105.617322,253.820896 L105.617322,249.982942 Z M105.617322,260.217484 L100.187346,260.217484 L100.187346,264.055437 L105.617322,264.055437 L105.617322,260.217484 Z M105.617322,270.132196 L100.187346,270.132196 L100.187346,273.970149 L105.617322,273.970149 L105.617322,270.132196 Z M133.086609,270.132196 L111.526413,270.132196 L111.526413,273.970149 L133.086609,273.970149 L133.086609,270.132196 Z M133.086609,260.217484 L119.511671,260.217484 L119.511671,264.055437 L133.086609,264.055437 L133.086609,260.217484 Z M133.086609,249.982942 L111.526413,249.982942 L111.526413,253.820896 L133.086609,253.820896 L133.086609,249.982942 Z M133.086609,234.151386 L100.187346,234.151386 L100.187346,237.989339 L133.086609,237.989339 L133.086609,234.151386 Z" id="Rectangle-6" sketch:type="MSShapeGroup"></path>
        </g>
    </g>
</svg>