<?xml version="1.0" encoding="UTF-8" standalone="no"?>
<svg width="110px" height="76px" viewBox="0 0 110 76" version="1.1" xmlns="http://www.w3.org/2000/svg" xmlns:xlink="http://www.w3.org/1999/xlink" xmlns:sketch="http://www.bohemiancoding.com/sketch/ns">
    <!-- Generator: Sketch 3.3.2 (12043) - http://www.bohemiancoding.com/sketch -->
    <title>Oval 13</title>
    <desc>Created with Sketch.</desc>
    <defs></defs>
    <g id="Page-1" stroke="none" stroke-width="1" fill="none" fill-rule="evenodd" sketch:type="MSPage">
        <g id="512" sketch:type="MSArtboardGroup" transform="translate(-201.000000, -218.000000)" fill="#FFFFFF">
            <path d="M231.512665,252.700677 C241.094992,252.700677 248.863003,244.932666 248.863003,235.350339 C248.863003,225.768011 241.094992,218 231.512665,218 C221.930337,218 214.162326,225.768011 214.162326,235.350339 C214.162326,244.932666 221.930337,252.700677 231.512665,252.700677 Z M277.700463,252.939993 C287.28279,252.939993 295.050802,245.171981 295.050802,235.589654 C295.050802,226.007326 287.28279,218.239315 277.700463,218.239315 C268.118136,218.239315 260.350124,226.007326 260.350124,235.589654 C260.350124,245.171981 268.118136,252.939993 277.700463,252.939993 Z M266.81163,293.503888 C264.41848,275.196289 251.27913,262.991223 232.70924,262.991223 C214.13935,262.991223 201,273.999714 201,293.503888 C228.401569,293.503888 233.18787,293.503888 266.81163,293.503888 Z M310.606278,293.503888 C308.213128,275.196289 293.973884,254.256226 260.230467,269.333071 C262.743274,271.726221 270.999643,282.175425 270.999643,293.503888 C298.401212,293.503888 276.982518,293.503888 310.606278,293.503888 Z" id="Oval-13" sketch:type="MSShapeGroup"></path>
        </g>
    </g>
</svg>