<?xml version="1.0" encoding="UTF-8" standalone="no"?>
<svg width="381px" height="301px" viewBox="0 0 381 301" version="1.1" xmlns="http://www.w3.org/2000/svg" xmlns:xlink="http://www.w3.org/1999/xlink" xmlns:sketch="http://www.bohemiancoding.com/sketch/ns">
    <!-- Generator: Sketch 3.3.2 (12043) - http://www.bohemiancoding.com/sketch -->
    <title>icon</title>
    <desc>Created with Sketch.</desc>
    <defs></defs>
    <g id="Page-1" stroke="none" stroke-width="1" fill="none" fill-rule="evenodd" sketch:type="MSPage">
        <g id="512" sketch:type="MSArtboardGroup" transform="translate(-66.000000, -106.000000)" fill="#FFFFFF">
            <g id="icon" sketch:type="MSLayerGroup" transform="translate(66.000000, 106.000000)">
                <path d="M297.265672,171.855372 L268.304478,150.797521 L189.695522,150.797521 L189.695522,180.880165 L264.167164,180.880165 C251.002985,231.268595 205.116418,268.495868 150.579104,268.495868 C85.5104478,268.495868 32.8537313,215.85124 32.8537313,150.797521 C32.8537313,85.7438017 85.5104478,33.0991736 150.579104,33.0991736 C192.704478,33.0991736 229.18806,54.5330579 250.250746,87.2479339 L273.19403,63.1818182 C245.737313,25.2024793 201.355224,0.00826446281 150.955224,0.00826446281 C67.8328358,0.00826446281 0.507462687,67.3181818 0.507462687,150.421488 C0.507462687,233.524793 67.8328358,300.834711 150.955224,300.834711 C198.722388,300.834711 241.223881,278.64876 268.680597,244.053719 L268.680597,271.880165 L298.770149,271.880165 L298.770149,180.128099 L310.429851,180.128099 L298.01791,172.607438 L297.265672,171.855372 Z" id="G" sketch:type="MSShapeGroup"></path>
                <path d="M380.38806,150.165289 L304.41194,150.165289 L304.41194,74.2066116 L274.322388,74.2066116 L274.322388,150.165289 L316.071642,180.247934 L380.38806,180.247934 L380.38806,150.165289 Z" id="+" fill-opacity="0.514464447" sketch:type="MSShapeGroup"></path>
            </g>
        </g>
    </g>
</svg>