<?xml version="1.0" encoding="UTF-8" standalone="no"?>
<svg width="609px" height="609px" viewBox="0 0 609 609" version="1.1" xmlns="http://www.w3.org/2000/svg" xmlns:xlink="http://www.w3.org/1999/xlink" xmlns:sketch="http://www.bohemiancoding.com/sketch/ns">
    <!-- Generator: Sketch 3.3.2 (12043) - http://www.bohemiancoding.com/sketch -->
    <title>随手记</title>
    <desc>Created with Sketch.</desc>
    <defs>
        <path id="path-1" d="M304.5,609 C472.670706,609 609,472.670706 609,304.5 C609,136.329294 472.670706,0 304.5,0 C136.329294,0 0,136.329294 0,304.5 C0,472.670706 136.329294,609 304.5,609 Z"></path>
    </defs>
    <g id="Page-1" stroke="none" stroke-width="1" fill="none" fill-rule="evenodd" sketch:type="MSPage">
        <g id="随手记" sketch:type="MSLayerGroup">
            <mask id="mask-2" sketch:name="Mask" fill="white">
                <use xlink:href="#path-1"></use>
            </mask>
            <use id="Mask" fill="#65E5F2" sketch:type="MSShapeGroup" xlink:href="#path-1"></use>
            <circle id="Oval-2" stroke="#FFFFFF" stroke-width="4" sketch:type="MSShapeGroup" mask="url(#mask-2)" cx="304" cy="301" r="164"></circle>
            <g id="手＋手机" mask="url(#mask-2)" sketch:type="MSShapeGroup">
                <g transform="translate(225.000000, 223.000000)">
                    <path d="M80,167.049779 L79.9999978,180.877699 L79.9999978,194.170083 L16.468262,194.170084 L14.9607836,130.312921" id="Path-6" stroke="none" fill="#EDC6AB" fill-rule="evenodd"></path>
                    <path d="M50.4932427,27.0299655 C50.4932427,27.0299655 45.3452427,46.6231789 41.4487119,64.5923056 C41.4487119,66.494574 41.6066073,73.9313711 50.493243,73.9313711 C90.9346827,69.5716604 141.28801,48.4892591 141.28801,48.4892591 L144.540253,133.164659 C144.540253,133.164659 65.291302,183.280412 61.2274059,185.217698 C53.9120906,189.25699 50.3422893,185.217698 48.6620983,185.217698 C27.9604762,173.254487 14.7384189,139.889955 14.7384189,129.733663 C14.7384189,94.8903209 34.1315254,11.3316192 40.3772624,2.55404366 C50.7955974,-4.80094205 50.7955964,15.3228343 50.7955964,15.3228343" id="Path-7" stroke="none" fill="#FCE0B8" fill-rule="evenodd"></path>
                    <rect id="Rectangle-1" fill="#383838" fill-rule="evenodd" x="50" y="2" width="95.8178189" height="162.403083" rx="5"></rect>
                    <rect id="Rectangle-1-Copy" fill="#FFFFFF" fill-rule="evenodd" x="58" y="18.2403083" width="79.3216956" height="123.426343"></rect>
                    <path d="M89.5,12.5 L106.5,12.5" id="Line" stroke="#FFFFFF" stroke-width="1" stroke-linecap="square" fill="none"></path>
                    <path d="M149.331475,45.4762605 C147.438295,46.5339301 128.712186,57.4613191 123.71938,60.982014 C118.394377,63.9347284 116.676908,74.7040001 128.359208,72.8971255 C146.404791,64.4087855 147.240216,65.1759149 151.219196,62.617402 C156.755457,59.9142887 160.966886,46.5339302 149.331475,45.4762605 Z" id="Path-2" stroke="none" fill="#FCE0B8" fill-rule="evenodd" transform="translate(138.178663, 59.288199) rotate(-10.000000) translate(-138.178663, -59.288199) "></path>
                    <path d="M148.09314,73.9359128 C146.354549,74.7772274 129.157528,83.4693288 124.572411,86.2698364 C119.682223,88.6185488 118.104995,97.184877 128.833373,95.7476135 C145.405436,88.9956336 146.172644,89.6058403 149.826719,87.5706924 C154.910914,85.4205232 158.778457,74.7772275 148.09314,73.9359128 Z" id="Path-2-Copy" stroke="none" fill="#FCE0B8" fill-rule="evenodd" transform="translate(137.851015, 84.922505) rotate(-5.000000) translate(-137.851015, -84.922505) "></path>
                    <path d="M147.718302,96.3532134 C146.134057,97.1437426 130.463723,105.31115 126.285656,107.942607 C121.829601,110.149541 120.392394,118.198768 130.168346,116.848264 C145.269202,110.503863 145.968301,111.077235 149.29798,109.164938 C153.930819,107.144562 157.455016,97.1437426 147.718302,96.3532134 Z" id="Path-2-Copy-2" stroke="none" fill="#FCE0B8" fill-rule="evenodd"></path>
                    <path d="M146.057684,117.600891 C144.588002,118.39142 130.050857,126.558828 126.174924,129.190285 C122.041105,131.397219 120.707828,139.446446 129.776839,138.095942 C143.785689,131.751541 144.434232,132.324913 147.523129,130.412615 C151.820947,128.39224 155.090294,118.39142 146.057684,117.600891 Z" id="Path-2-Copy-3" stroke="none" fill="#FCE0B8" fill-rule="evenodd" transform="translate(137.399716, 127.924284) rotate(10.000000) translate(-137.399716, -127.924284) "></path>
                    <path d="M0,193 L95.8178189,193 L95.8178189,409 C49.11623,409 16.5247383,404.459045 0,397.860204 L0,193 Z" id="Rectangle-3" stroke="none" fill="#5A5374" fill-rule="evenodd"></path>
                    <path d="M0,193 L50,193 L50,384.509552 C28.0795822,381.864777 14.3753872,380.360947 0,375.378052 L0,193 Z" id="Rectangle-3-Copy" stroke="none" fill="#4C4565" fill-rule="evenodd"></path>
                    <path d="M80.8332882,68.1832177 L98.7563104,43.1827384 L116.648142,68.1832177 L106.761964,68.1832184 L104.743313,93.9999991 L93.5155411,93.9999991 L91.2056202,68.1832184 L80.8332882,68.1832177 Z" id="Path-9" stroke="none" fill-opacity="0.866225091" fill="#146996" fill-rule="evenodd"></path>
                    <path d="M80.8332882,68.1832177 L98.7563104,43.1827384 L99.9573002,93.9999991 L93.5155411,93.9999991 L91.2056202,68.1832184 L80.8332882,68.1832177 Z" id="Path-9-Copy" stroke="none" fill-opacity="0.866225091" fill="#135F87" fill-rule="evenodd"></path>
                    <rect id="Rectangle-4" stroke="none" fill="#347DA4" fill-rule="evenodd" x="80" y="103" width="38" height="5"></rect>
                </g>
            </g>
            <g id="1" mask="url(#mask-2)">
                <g transform="translate(35.000000, 250.000000)">
                    <ellipse id="Oval-3-Copy-3" fill="#18BFDF" sketch:type="MSShapeGroup" cx="93.6986301" cy="92.5352113" rx="71.5068493" ry="73.5211268"></ellipse>
                    <path d="M64.3324124,84.1945907 C94.7213368,55.5212477 138.40709,59.8806647 162.962549,85.5927149 L162.962549,146.334707 C162.962549,146.334707 129.375938,156.762589 112.221135,156.762589 C96.499226,156.762589 64.3324124,146.334707 64.3324124,146.334707 L64.3324124,84.1945907 Z" id="Rectangle-6" fill="#14A4C0" sketch:type="MSShapeGroup" transform="translate(113.647481, 110.602395) rotate(-230.000000) translate(-113.647481, -110.602395) "></path>
                    <g id="Group" stroke-width="1" fill="none" sketch:type="MSLayerGroup" transform="translate(80.782687, 82.416756) rotate(-140.000000) translate(-80.782687, -82.416756) translate(20.807113, 26.784178)">
                        <path d="M50.7596299,15.3142552 C50.7596299,15.3142552 62.6364852,15.3142552 64.8714393,15.3142552 C66.21402,16.0111794 67.5230391,18.2587412 64.8714393,20.1893063 L51.13982,19.9114941 L50.7596299,15.3142552 Z" id="引擎1" fill="#F5F5F5" sketch:type="MSShapeGroup"></path>
                        <path d="M56.6947127,26.5926986 C56.6947127,26.5926986 68.571568,26.5926986 70.8065221,26.5926986 C72.1491028,27.2896228 73.4581219,29.5371847 70.8065221,31.4677497 L57.0749028,31.1899375 L56.6947127,26.5926986 Z" id="引擎1-copy" fill="#F5F5F5" sketch:type="MSShapeGroup"></path>
                        <path d="M56.6947127,80.3549651 C56.6947127,80.3549651 68.571568,80.3549651 70.8065221,80.3549651 C72.1491028,81.0518893 73.4581219,83.2994511 70.8065221,85.2300162 L57.0749028,84.952204 L56.6947127,80.3549651 Z" id="引擎1-copy-2" fill="#F5F5F5" sketch:type="MSShapeGroup"></path>
                        <path d="M50.7596299,91.3071177 C50.7596299,91.3071177 62.6364852,91.3071177 64.8714393,91.3071177 C66.21402,92.0040419 67.5230391,94.2516038 64.8714393,96.1821689 L51.13982,95.9043566 L50.7596299,91.3071177 Z" id="引擎1-copy-3" fill="#F5F5F5" sketch:type="MSShapeGroup"></path>
                        <path d="M51.5498735,0.28534211 L74.1806571,46.6595734 L74.500682,65.1086942 L51.4282641,111.196397 L43.7078939,111.083695 L52.1762078,78.4203512 L52.0683137,32.8412377 L44.0562638,0.1664326 L51.5498735,0.28534211 Z" id="机翼" fill="#FF8B8B" sketch:type="MSShapeGroup"></path>
                        <path d="M0.221721175,31.6796401 L3.8602962,31.6796401 L17.4878703,52.7592491 L17.5947841,58.5586396 L3.74175315,79.437621 L0.448432133,79.7115247 L6.48399904,55.6162326 L0.221721175,31.6796401 Z" id="尾翼" fill="#FF8B8B" sketch:type="MSShapeGroup"></path>
                        <path d="M119.831457,55.5529814 C119.067388,48.1288204 101.889488,46.4344902 97.0249263,46.4344902 C84.5729226,46.4344902 32.8278637,48.1288203 27.3224169,48.1288204 C2.25652757,51.4379378 2.23515542,55.2007096 1.66323368,55.753473 C1.95581657,56.1878903 2.25652757,60.7955041 27.3224174,63.2561203 C27.3224174,63.2561203 92.175808,65.7649188 97.9856385,64.8855217 C100.64708,64.8855217 119.067388,63.7374849 119.831457,55.5529814 Z" id="机身" fill="#FFFFFF" sketch:type="MSShapeGroup"></path>
                        <path d="M103.917706,49.4600186 C110.339744,54.0590645 109.836518,58.3781721 103.960163,61.9415084 C107.744852,57.0423563 104.033411,49.5079375 104.033411,49.5079374" id="机舱玻璃" fill="#505662" sketch:type="MSShapeGroup"></path>
                    </g>
                </g>
            </g>
            <g id="2" mask="url(#mask-2)" sketch:type="MSShapeGroup">
                <g transform="translate(151.000000, 99.000000)">
                    <circle id="Oval-3" fill="#18C0DF" cx="58" cy="58" r="58"></circle>
                    <path d="M70.9894058,32.8482076 C70.9894058,32.8482076 95.6586248,53.7953905 115.676482,64.3478033 C112.098312,93.5344869 89.4073555,109.314989 78.0193931,112.083063 C59.180826,97.537703 17.031234,70.0409867 17.031234,70.0409867" id="Path-9" fill="#14A5C0"></path>
                    <circle id="Oval-9" fill="#FFFFFF" cx="55.5" cy="52.5" r="25.5"></circle>
                    <circle id="Oval-9-Copy" fill="#FFFFFF" cx="84.5" cy="61.5" r="16.5"></circle>
                    <circle id="Oval-9-Copy-2" fill="#FFFFFF" cx="28.5" cy="65.5" r="12.5"></circle>
                    <rect id="Rectangle-7" fill="#FFFFFF" x="28" y="61" width="57" height="17"></rect>
                </g>
            </g>
            <g id="3" mask="url(#mask-2)" sketch:type="MSShapeGroup">
                <g transform="translate(353.385435, 81.500000)">
                    <ellipse id="Oval-3-Copy" fill="#18C5E6" cx="74.4696862" cy="75.5" rx="74.2574257" ry="75.5"></ellipse>
                    <path d="M94.6769136,44.1108817 C94.6769136,44.1108817 129.562408,74.2876525 147.005155,89.3760379 C143.680101,122.998549 109.950785,147.262395 86.62918,149.349143 C71.2031766,135.186751 40.3511697,106.861968 40.3511697,106.861968 L94.6769136,44.1108817 Z" id="Path-21" fill="#16B2D0"></path>
                    <path d="M111.386139,102.68 C111.386139,82.6652007 95.4279713,66.44 75.7425743,66.44 C56.0571772,66.44 40.0990099,82.6652007 40.0990099,102.68 C40.0990099,122.694799 111.386139,122.694799 111.386139,102.68 Z" id="Oval-7" fill="#404E69"></path>
                    <path d="M62.1822782,68.9885228 L74.9485511,96.8579584 L89.2384587,68.4138674 L62.1822782,68.9885228 Z" id="Path-19" fill="#D8D8D8"></path>
                    <ellipse id="Oval-7-Copy-2" fill="#FFFFFF" cx="75.7425743" cy="51.34" rx="23.7623762" ry="24.16"></ellipse>
                    <path d="M98.1805496,46.3120836 C99.2744219,43.4834203 96.984158,38.856091 94.4224771,36.1790447 C76.5234763,15.1837298 49.2159736,32.0348285 51.8633507,49.8365967 C51.8633507,49.8365967 55.8366034,34.3553021 68.3891547,36.5483731 C80.9417059,38.7414441 74.780005,46.005218 83.8686052,49.8365973 C89.0091939,52.0036576 96.7562511,49.9952021 98.1805496,46.3120836 Z" id="Path-20" fill="#424242"></path>
                </g>
            </g>
            <g id="4" mask="url(#mask-2)" sketch:type="MSShapeGroup">
                <g transform="translate(410.000000, 306.000000)">
                    <circle id="Oval-3-Copy-2" fill="#18BFDF" cx="48.7853153" cy="48.6656028" r="48.6656028"></circle>
                    <path d="M22.1247697,42.0814591 C22.1247697,42.0814591 68.5710348,84.4690116 73.9117717,89.7725418 C89.237698,82.0152239 95.8811155,63.7565522 96.7339891,56.845711 C89.1113336,50.1271564 79.6902741,42.0095102 79.6902741,42.0095102 L45.8606245,31.4293773 L22.1247697,42.0814591 Z" id="Path-10" fill="#14A4C0"></path>
                    <path d="M50.7326773,69.0021429 C50.7326773,69.0021429 43.3538777,61.7053104 42.6996744,61.4074671 C44.2993494,57.4644951 54.5603692,55.0197253 58.9269849,61.4074672 L50.7326773,69.0021429 Z" id="Path-24" fill="#FED959"></path>
                    <path d="M21.8508412,42.5813456 C35.4286182,28.8636687 51.5385748,28.2853718 63.8055271,32.37116 C70.767514,34.6900085 76.4916625,38.5111669 79.8125531,42.2853035 C76.2316165,46.038026 75.2316064,47.137198 73.3901717,48.9445765 C56.0555624,34.2298829 39.4674776,39.2664419 28.1394288,48.5739316 C28.1394288,48.5739316 24.4301314,45.567562 21.8508412,42.5813456 Z" id="Path-22" fill="#FED959"></path>
                    <path d="M31.4010821,51.9982712 C44.9788591,38.2805944 63.3207775,43.8671479 70.387526,51.9982709 C66.8065893,55.7509933 68.8386576,53.4638826 63.9822128,58.3322311 C56.5387595,51.3132307 45.6515323,50.6139075 37.4955419,58.3322308 C37.4955419,58.3322308 33.9803723,54.9844876 31.4010821,51.9982712 Z" id="Path-22-Copy" fill="#FED959"></path>
                </g>
            </g>
        </g>
    </g>
</svg>