<?xml version="1.0" encoding="UTF-8" standalone="no"?>
<svg width="609px" height="609px" viewBox="0 0 609 609" version="1.1" xmlns="http://www.w3.org/2000/svg" xmlns:xlink="http://www.w3.org/1999/xlink" xmlns:sketch="http://www.bohemiancoding.com/sketch/ns">
    <!-- Generator: Sketch 3.3.2 (12043) - http://www.bohemiancoding.com/sketch -->
    <title>随手审</title>
    <desc>Created with Sketch.</desc>
    <defs>
        <path id="path-1" d="M304.5,609 C472.670706,609 609,472.670706 609,304.5 C609,136.329294 472.670706,0 304.5,0 C136.329294,0 0,136.329294 0,304.5 C0,472.670706 136.329294,609 304.5,609 Z"></path>
        <ellipse id="path-3" cx="65.9696691" cy="68.1708991" rx="65.9696691" ry="68.1708991"></ellipse>
    </defs>
    <g id="Page-1" stroke="none" stroke-width="1" fill="none" fill-rule="evenodd" sketch:type="MSPage">
        <g id="随手审" sketch:type="MSLayerGroup">
            <mask id="mask-2" sketch:name="Mask" fill="white">
                <use xlink:href="#path-1"></use>
            </mask>
            <use id="Mask" fill="#FFD560" sketch:type="MSShapeGroup" xlink:href="#path-1"></use>
            <circle id="白圈" stroke="#FFFFFF" stroke-width="4" sketch:type="MSShapeGroup" mask="url(#mask-2)" cx="304" cy="301" r="164"></circle>
            <g id="手＋手机" mask="url(#mask-2)">
                <g transform="translate(215.000000, 223.000000)">
                    <g id="手掌" stroke-width="1" fill="none" sketch:type="MSLayerGroup" transform="translate(14.000000, 0.000000)">
                        <path d="M66,167.049779 L65.9999978,180.877699 L65.9999978,194.170083 L2.46826199,194.170084 L0.96078357,130.312921" id="Path-6" fill="#EDC6AB" sketch:type="MSShapeGroup"></path>
                        <path d="M36.4932427,27.0299655 C36.4932427,27.0299655 31.3452427,46.6231789 27.4487119,64.5923056 C27.4487119,66.494574 27.6066073,73.9313711 36.493243,73.9313711 C76.9346827,69.5716604 127.28801,48.4892591 127.28801,48.4892591 L130.540253,133.164659 C130.540253,133.164659 51.291302,183.280412 47.2274059,185.217698 C39.9120906,189.25699 36.3422893,185.217698 34.6620983,185.217698 C13.9604762,173.254487 0.738418899,139.889955 0.738418899,129.733663 C0.738418899,94.8903209 20.1315254,11.3316192 26.3772624,2.55404366 C36.7955974,-4.80094205 36.7955964,15.3228343 36.7955964,15.3228343" id="Path-7" fill="#FCE0B8" sketch:type="MSShapeGroup"></path>
                    </g>
                    <g id="手机" stroke-width="1" fill="none" sketch:type="MSLayerGroup" transform="translate(50.000000, 2.000000)">
                        <rect id="Rectangle-1" fill="#383838" sketch:type="MSShapeGroup" x="0" y="0" width="95.8178189" height="162.403083" rx="5"></rect>
                        <rect id="Rectangle-1-Copy" fill="#FFFFFF" sketch:type="MSShapeGroup" x="8" y="16.2403083" width="79.3216956" height="123.426343"></rect>
                        <path d="M39.5,10.5 L56.5,10.5" id="Line" stroke="#FFFFFF" stroke-linecap="square" sketch:type="MSShapeGroup"></path>
                    </g>
                    <ellipse id="Oval-23-Copy" fill="#D8D8D8" sketch:type="MSShapeGroup" cx="98" cy="82.383139" rx="30" ry="29.1161633"></ellipse>
                    <path d="M85.198524,78.3961622 L79.2299357,84.4012465 L93.8532761,99.7350031 L120,73.0938113 L113.585712,67.1142068 L94.2760428,86.8167336 L85.198524,78.3961622 Z" id="Path-48" fill="#32BF41" sketch:type="MSShapeGroup"></path>
                    <path d="M93.0628812,98.9319978 L94.8532761,100.735003 L121,74.0938113 L119.318572,72.5204168 L93.0628812,98.9319978 Z" id="Path-48-Copy" fill="#2E9639" sketch:type="MSShapeGroup"></path>
                    <g id="手指" stroke-width="1" fill="none" sketch:type="MSLayerGroup" transform="translate(117.000000, 42.000000)">
                        <path d="M32.3314747,3.47626047 C30.4382952,4.53393014 11.712186,15.4613191 6.7193799,18.982014 C1.39437651,21.9347284 -0.323091782,32.7040001 11.3592085,30.8971255 C29.404791,22.4087855 30.2402163,23.1759149 34.2191964,20.617402 C39.755457,17.9142887 43.9668859,4.53393017 32.3314747,3.47626047 Z" id="Path-2" fill="#FCE0B8" sketch:type="MSShapeGroup" transform="translate(21.178663, 17.288199) rotate(-10.000000) translate(-21.178663, -17.288199) "></path>
                        <path d="M31.0931399,31.9359128 C29.3545487,32.7772274 12.1575276,41.4693288 7.57241111,44.2698364 C2.68222304,46.6185488 1.10499532,55.184877 11.8333726,53.7476135 C28.4054357,46.9956336 29.1726441,47.6058403 32.8267189,45.5706924 C37.9109139,43.4205232 41.7784569,32.7772275 31.0931399,31.9359128 Z" id="Path-2-Copy" fill="#FCE0B8" sketch:type="MSShapeGroup" transform="translate(20.851015, 42.922505) rotate(-5.000000) translate(-20.851015, -42.922505) "></path>
                        <path d="M30.7183021,54.3532134 C29.1340565,55.1437426 13.4637233,63.3111505 9.28565648,65.9426072 C4.8296012,68.149541 3.39239391,76.198768 13.1683456,74.848264 C28.2692023,68.5038632 28.9683007,69.0772352 32.2979804,67.1649378 C36.9308194,65.1445622 40.4550162,55.1437426 30.7183021,54.3532134 Z" id="Path-2-Copy-2" fill="#FCE0B8" sketch:type="MSShapeGroup"></path>
                        <path d="M29.0576837,75.600891 C27.5880017,76.3914202 13.0508571,84.558828 9.17492408,87.1902848 C5.04110515,89.3972185 3.70782845,97.4464456 12.7768394,96.0959416 C26.7856888,89.7515408 27.4342324,90.3249128 30.5231287,88.4126153 C34.8209474,86.3922398 38.0902945,76.3914202 29.0576837,75.600891 Z" id="Path-2-Copy-3" fill="#FCE0B8" sketch:type="MSShapeGroup" transform="translate(20.399716, 85.924284) rotate(10.000000) translate(-20.399716, -85.924284) "></path>
                    </g>
                    <g id="袖子" stroke-width="1" fill="none" sketch:type="MSLayerGroup" transform="translate(0.000000, 193.000000)">
                        <path d="M0,0 L95.8178189,0 L95.8178189,223 C49.11623,223 13.9681329,212.352032 0.779719949,207.34149 L0,0 Z" id="Rectangle-3" fill="#5A5374" sketch:type="MSShapeGroup"></path>
                        <path d="M0,0 L50,0 L50,190.417557 C28.0298386,186.904343 14.3753872,184.566101 0,179.583206 L0,0 Z" id="Rectangle-3-Copy" fill="#4C4565" sketch:type="MSShapeGroup"></path>
                    </g>
                </g>
            </g>
            <g id="4" mask="url(#mask-2)">
                <g transform="translate(400.000000, 324.000000)">
                    <circle id="Oval-3-Copy-2" fill="#E3A630" sketch:type="MSShapeGroup" cx="54.7590274" cy="54.6246563" r="54.6246563"></circle>
                    <path d="M77.5146336,21.614747 C77.5146336,21.614747 94.8659916,39.7152733 109.383684,55.6275522 C109.383684,86.9733398 81.6358319,112.073639 51.6751711,108.993045 C48.3277852,104.922753 41.1846547,99.139944 35.7991316,92.6290248 C39.9746936,84.1787653 46.6595104,81.3816428 44.998724,79.138202 C33.6553125,63.8151764 22.6041114,48.6268837 22.6041114,48.6268837 L77.5146336,21.614747 Z" id="Path-21" fill="#B48428" sketch:type="MSShapeGroup"></path>
                    <g id="receipt" stroke-width="1" fill="none" sketch:type="MSLayerGroup" transform="translate(22.288419, 20.213675)">
                        <path d="M67.8369871,75.2263625 L59.0477165,67.7441105 L50.2938807,75.1733045 L41.0973107,67.4564252 L32.5668592,75.5714883 L23.5397182,67.4710285 L14.7853782,75.1733073 L14.7853782,7.44657529 C13.7513069,1.62969578 8.24602019,1.19075108 8.24602019,1.19075108 C8.24602019,1.19075108 60.8885636,1.19075108 60.8885636,1.19075108 C66.0966047,2.13515307 67.8369858,5.90260207 67.8369871,8.60719109 L67.8369871,75.2263625 Z" id="Path-37" fill="#FFFFFF" sketch:type="MSShapeGroup"></path>
                        <rect id="Rectangle-13" fill="#59C6EC" sketch:type="MSShapeGroup" x="20.8254757" y="13.4342891" width="41.1889804" height="3.27447541"></rect>
                        <rect id="Rectangle-13-Copy" fill="#59C6EC" sketch:type="MSShapeGroup" x="20.8254757" y="23.7254975" width="41.1889804" height="3.27447541"></rect>
                        <rect id="Rectangle-13-Copy-2" fill="#59C6EC" sketch:type="MSShapeGroup" x="20.8254757" y="33.5489237" width="41.1889804" height="3.27447541"></rect>
                        <rect id="Rectangle-13-Copy-3" fill="#59C6EC" sketch:type="MSShapeGroup" x="20.8254757" y="44.3079144" width="19.3830496" height="3.27447541"></rect>
                        <rect id="Rectangle-13-Copy-4" fill="#59C6EC" sketch:type="MSShapeGroup" x="20.8254757" y="51.7924296" width="19.3830496" height="3.27447541"></rect>
                        <path d="M57.9693103,46.9360709 C58.9154342,40.3881589 46.2929204,39.0675496 46.3808213,46.833445 C46.6072802,51.5989161 50.9666991,51.8506133 53.8880552,55.9604269 C55.4193663,59.6257481 48.9811599,60.9374562 50.0398204,55.6988188 C50.0398204,55.6988188 47.3090256,55.6546306 46.2929204,55.6988188 C44.8531728,61.3972316 53.0079305,64.3878246 57.1703007,59.829143 C57.9406183,58.7650895 58.0654169,57.4176549 57.9406181,55.6546305 C57.4186079,52.3610429 50.1471712,48.9297315 50.2440175,46.8334451 C50.0398205,43.1180299 54.7831742,44.0579791 54.1174604,46.9360709 C54.1174604,46.9360709 55.8683707,46.9360709 57.9693103,46.9360709 Z" id="Path-38" fill="#293744" sketch:type="MSShapeGroup"></path>
                        <rect id="Rectangle-18" fill="#293744" sketch:type="MSShapeGroup" x="51.3537787" y="39.1623102" width="1.45372872" height="24.7924567"></rect>
                        <path d="M1.10653027,29.137238 C1.10653027,29.137238 1.01317115,9.36010964 1.01317115,7.40806693 C2.30312794,1.67098889 6.78251467,1.0620288 8.09087735,1.0620288 C11.1126209,1.0620288 14.6422106,4.60505597 14.8421558,7.40806685 C14.8421558,7.49468839 14.8421558,7.58130993 14.8421558,7.66793147 C14.8421557,14.8251286 14.8421555,29.1395228 14.8421555,29.1395228 L1.10653027,29.137238 Z" id="Path-39" fill="#D8D8D8" sketch:type="MSShapeGroup"></path>
                        <path d="M8.58107477,1.29494352 C8.59220158,1.3020597 12.4769329,3.38677614 13.1063042,6.94958574 L13.2798934,28.9462999 L14.8850598,28.9766897 C14.8850598,28.9766897 14.7587809,8.93331497 14.7587808,6.7971217 C13.8532104,3.45480191 11.4436081,1.52961478 8.58107477,1.29494352 Z" id="Path-40" fill="#A4A5A7" sketch:type="MSShapeGroup"></path>
                    </g>
                </g>
            </g>
            <g id="3" mask="url(#mask-2)">
                <g transform="translate(359.000000, 86.000000)">
                    <circle id="Oval-3-Copy" fill="#E4A730" sketch:type="MSShapeGroup" cx="81.4326799" cy="81.2005729" r="81.2005729"></circle>
                    <path d="M118.280196,47.489554 C118.280196,47.489554 157.852108,86.3511544 162.098471,90.300244 C155.012467,149.908888 96.2202714,166.7961 71.1275492,162.096414 L35.6651696,128.456565 L72.112808,68.2536297 L118.280196,47.489554 Z" id="Path-47" fill="#A87B25" sketch:type="MSShapeGroup"></path>
                    <g id="Pen" stroke-width="1" fill="none" sketch:type="MSLayerGroup" transform="translate(32.480229, 35.302770)">
                        <path d="M63.9496261,0.187039895 L85.7735021,11.3807656 L69.752727,27.2792949 L48.0934148,16.2497032 L63.9496261,0.187039895 Z" id="Path-43" fill="#52D3FF" sketch:type="MSShapeGroup"></path>
                        <path d="M82.645853,44.2375077 L64.3789279,28.672694 L85.1542536,16.3671131 L102.200293,32.8780201 L82.645853,44.2375077 Z" id="Path-43-Copy" fill="#239CC7" sketch:type="MSShapeGroup" transform="translate(83.289610, 30.302310) scale(-1, 1) rotate(-105.000000) translate(-83.289610, -30.302310) "></path>
                        <path d="M69.6975417,27.2051219 C69.6975417,27.2051219 56.4889577,40.3298168 53.6838853,42.8822231 C60.0969166,50.9658903 51.5692117,58.0357724 45.9643987,55.9451053 C36.957734,63.943129 27.5072492,71.4587798 18.5005846,79.4568034 C13.0658278,84.2829311 3.25147279,93.8396048 3.25147279,93.8396048 C3.25147279,93.8396048 7.15489175,96.4324289 9.97176372,96.0848435 C11.4329058,95.9045472 13.7215348,94.6487236 14.8796709,92.8600461 C16.037807,91.0713685 16.1527196,86.8436644 16.1527196,86.8436644 L64.4453541,74.9375337 C64.4453541,74.9375337 64.095667,67.8878606 66.073355,64.6006552 C69.3004368,59.2367755 80.0596635,48.9842785 80.0596635,48.9842785 L69.6975417,27.2051219 Z" id="Path-45" fill="#D8D8D8" sketch:type="MSShapeGroup"></path>
                        <path d="M69.7417841,27.2703017 L48.3873155,16.2252871 C48.3873155,16.2252871 37.9445064,26.3546099 32.0588778,29.8749744 C29.1547741,31.6120026 22.0181187,31.9974651 22.0181187,31.9974651 L10.0487465,80.601187 C10.0487465,80.601187 6.67555521,80.0838641 4.06107383,81.4250502 C2.36752163,82.2938146 0.120234736,84.8249153 0.545749872,87.6422664 C0.966362005,90.4271545 2.96467383,93.4344447 2.96467383,93.4344447 C2.96467383,93.4344447 11.7395429,84.5925925 15.7393821,80.0838641 C24.3572517,70.3695652 32.1999305,60.479662 40.8178002,50.765363 C38.1987696,41.3801679 48.226367,37.7945733 53.7052281,42.8780686 L69.7417841,27.2703017 Z" id="Path-46" fill="#FFFFFF" sketch:type="MSShapeGroup"></path>
                    </g>
                </g>
            </g>
            <g id="2" mask="url(#mask-2)" sketch:type="MSShapeGroup">
                <g transform="translate(152.000000, 101.000000)">
                    <circle id="Oval-3" fill="#E3A630" cx="53.5" cy="53.5" r="53.5"></circle>
                    <path d="M62.6819679,30.5809441 C62.6819679,30.5809441 89.0208114,49.0594072 106.513689,61.1933232 C100.309648,92.3133352 80.2529612,101.67191 69.2621325,104.495993 C50.790297,92.2929055 28.1819664,76.916882 28.1819664,76.916882 C28.1819664,76.916882 34.4204744,70.1279346 35.6275256,70.76331" id="Path-9" fill="#B48428"></path>
                    <path d="M27.3058294,77.2654981 C27.3058294,77.2654981 34.1222286,72.3626582 34.122229,66.9147 C28.2984457,64.357378 24.1585664,58.6125497 23.3459982,52.3192964 C21.9532277,41.532439 29.7616914,29.2058048 51.4708065,29.0740617 C54.1607957,29.0577374 56.9939427,29.4456178 60.130948,29.8257374 C70.6130674,31.6430425 78.1964082,38.5557864 79.9106527,46.4248036 C82.5858517,58.7049579 72.3777334,72.9848403 47.4298363,71.3314837 C37.0130129,79.2321485 27.3058294,77.2654981 27.3058294,77.2654981 Z" id="对话框" fill="#FFFFFF"></path>
                </g>
            </g>
            <g id="1" mask="url(#mask-2)">
                <g transform="translate(64.000000, 276.000000)">
                    <mask id="mask-4" sketch:name="Mask" fill="white">
                        <use xlink:href="#path-3"></use>
                    </mask>
                    <use id="Mask" stroke="none" fill="#E3A630" fill-rule="evenodd" sketch:type="MSShapeGroup" xlink:href="#path-3"></use>
                    <path d="M137.609427,58.5705963 C157.365821,111.816812 112.149408,134.007371 75.363792,135.14321 C51.4257218,124.642332 30.3769111,114.870512 30.3769111,114.870512 C30.3769111,114.870512 32.3870027,84.7981361 46.8332063,58.1889821 C53.7002845,60.8124668 62.5016956,64.3834549 69.3631914,66.5703348 C76.2246871,68.7572147 74.3308108,61.2763396 76.763801,56.3980921 C84.56881,40.7487209 93.8050488,35.9256149 93.8050488,35.9256149 C93.8050488,35.9256149 116.360254,47.5528175 137.609427,58.5705963 L137.609427,58.5705963 Z" id="Rectangle-6" stroke="none" fill="#B48428" fill-rule="evenodd" sketch:type="MSShapeGroup" mask="url(#mask-4)"></path>
                    <g id="审批本" stroke="none" stroke-width="1" fill="none" fill-rule="evenodd" sketch:type="MSLayerGroup" mask="url(#mask-4)">
                        <g transform="translate(32.029412, 12.631206)" sketch:type="MSShapeGroup">
                            <rect id="Rectangle-28-Copy" stroke="none" fill="#D42734" fill-rule="evenodd" x="0" y="10.8774565" width="69.8823529" height="93.138221" rx="8"></rect>
                            <rect id="Rectangle-28" stroke="none" fill="#FF4D4D" fill-rule="evenodd" x="2.03540834" y="10.8774565" width="67.8469446" height="91.0986979" rx="8"></rect>
                            <rect id="Rectangle-30" stroke="none" fill="#FFFFFF" fill-rule="evenodd" x="7.76470588" y="21.3963527" width="55.0408338" height="74.8492833"></rect>
                            <rect id="Rectangle-31" stroke="#6F6F6F" stroke-width="1.5" fill="none" x="14.8803299" y="28.3968996" width="15.6223306" height="16.0071777" rx="3"></rect>
                            <path d="M13.7358182,35.9223211 L15.8190676,33.1846264 L20.8073128,38.3972889 L32.6736602,28.4454808 L21.2205835,41.6831308 L13.7358182,35.9223211 Z" id="Path-71" stroke="none" fill="#F46741" fill-rule="evenodd"></path>
                            <rect id="Rectangle-31-Copy" stroke="#6F6F6F" stroke-width="1.5" fill="none" x="14.8803299" y="50.0065895" width="15.6223306" height="16.0071777" rx="3"></rect>
                            <rect id="Rectangle-31-Copy-2" stroke="#6F6F6F" stroke-width="1.5" fill="none" x="14.8803299" y="72.277024" width="15.6223306" height="16.0071777" rx="3"></rect>
                            <path d="M13.7358182,57.532011 L15.8190676,54.7943163 L20.8073128,60.0069788 L32.6736602,50.0551707 L21.2205835,63.2928207 L13.7358182,57.532011 Z" id="Path-71-Copy" stroke="none" fill="#F46741" fill-rule="evenodd"></path>
                            <path d="M7.76470588,82.9745996 L22.0078665,96.245636 L19.8220778,83.0166461 L7.76470588,82.9745996 Z" id="Path-74" stroke="none" fill="#DEDBDB" fill-rule="evenodd"></path>
                            <rect id="Rectangle-35" stroke="none" fill="#D8D8D8" fill-rule="evenodd" x="35.0568123" y="32.2352941" width="22.6719427" height="2.03952309"></rect>
                            <rect id="Rectangle-35-Copy" stroke="none" fill="#D8D8D8" fill-rule="evenodd" x="35.0568123" y="39.0337044" width="22.6719427" height="2.03952309"></rect>
                            <rect id="Rectangle-35-Copy-2" stroke="none" fill="#D8D8D8" fill-rule="evenodd" x="35.0568123" y="54.5136245" width="22.6719427" height="2.03952309"></rect>
                            <rect id="Rectangle-35-Copy-3" stroke="none" fill="#D8D8D8" fill-rule="evenodd" x="35.0568123" y="61.3120348" width="19.2720472" height="2.03952309"></rect>
                            <rect id="Rectangle-35-Copy-5" stroke="none" fill="#D8D8D8" fill-rule="evenodd" x="35.0568123" y="76.6054498" width="22.6719427" height="2.03952309"></rect>
                            <rect id="Rectangle-35-Copy-6" stroke="none" fill="#D8D8D8" fill-rule="evenodd" x="35.0568123" y="83.0488988" width="15.6223306" height="2.03952309"></rect>
                            <path d="M16.119593,13.8276207 C17.3618758,5.88278003 27.2883883,6.17057603 27.2883883,6.17057603 C30.7896985,-2.73305624 41.4212876,-0.615364838 42.9928773,5.88277993 C53.4301585,5.55715152 53.6001588,13.7667247 53.6001588,13.7667247 C53.6001588,13.7667247 18.9581949,13.7667248 16.119593,13.8276207 Z" id="Path-75-Copy" stroke="none" fill="#4C9CA9" fill-rule="evenodd"></path>
                            <path d="M16.7980624,14.3012798 C18.0403453,6.87415657 27.9668578,7.14319864 27.9668578,7.14319864 C31.468168,-1.18023751 42.0997571,0.799456694 43.6713467,6.87415648 C54.108628,6.56974731 54.2786282,14.244352 54.2786282,14.244352 C54.2786282,14.244352 19.6366644,14.2443521 16.7980624,14.3012798 Z" id="Path-75" stroke="none" fill="#62C5D4" fill-rule="evenodd"></path>
                            <ellipse id="Oval-27-Copy" stroke="none" fill="#4C9CA9" fill-rule="evenodd" cx="35.6196459" cy="6.45848978" rx="2.37464306" ry="2.3794436"></ellipse>
                            <ellipse id="Oval-27" stroke="none" fill="#FFFFFF" fill-rule="evenodd" cx="35.2804112" cy="6.11856926" rx="2.03540834" ry="2.03952309"></ellipse>
                        </g>
                    </g>
                </g>
            </g>
        </g>
    </g>
</svg>