<?xml version="1.0" encoding="UTF-8" standalone="no"?>
<svg xmlns:xlink="http://www.w3.org/1999/xlink" xmlns:sketch="http://www.bohemiancoding.com/sketch/ns" width="142px" height="145px" viewBox="0 0 142 145"
     version="1.1" xmlns="http://www.w3.org/2000/svg">
    <!-- Generator: Sketch 3.3.2 (12043) - http://www.bohemiancoding.com/sketch -->
    <title>1</title>
    <desc>Created with Sketch.</desc>
    <defs>
        <ellipse id="path-1" cx="70.4857963" cy="72.9958208" rx="70.4500978" ry="72.4346076"></ellipse>
    </defs>
    <g id="Page-1" stroke="none" stroke-width="1" fill="none" fill-rule="evenodd" sketch:type="MSPage">
        <g id="随手记" sketch:type="MSArtboardGroup" transform="translate(-56.000000, -265.000000)">
            <g id="Group" sketch:type="MSLayerGroup">
                <g id="1" transform="translate(56.310884, 264.477294)">
                    <mask id="mask-2" sketch:name="Mask" fill="white">
                        <use xlink:href="#path-1"></use>
                    </mask>
                    <use id="Mask" fill="#18BFDF" sketch:type="MSShapeGroup" xlink:href="#path-1"></use>
                    <path d="M158.108182,77.8119351 C160.75173,122.346195 126.590479,155.085389 88.0146555,157.523165 L37.4242396,115.835348 C37.4242396,115.835348 52.2116071,81.2076976 64.200484,67.1765774 C75.1879622,54.3174389 106.353305,35.1645716 106.353305,35.1645716 L158.108182,77.8119351 L158.108182,77.8119351 Z"
                          id="Rectangle-6" fill="#14A4C0" sketch:type="MSShapeGroup" mask="url(#mask-2)"></path>
                    <g id="Group" mask="url(#mask-2)" sketch:type="MSShapeGroup">
                        <g transform="translate(65.917374, 69.929349) rotate(-140.000000) translate(-65.917374, -69.929349) translate(0.709557, 10.529981)">
                            <path d="M55.1878788,16.3511579 C55.1878788,16.3511579 68.100866,16.3511579 70.5307967,16.3511579 C71.9905035,17.0952697 73.4137209,19.4950102 70.5307967,21.5562906 L55.6012365,21.2596682 L55.1878788,16.3511579 Z"
                                  id="引擎1" fill="#F5F5F5"></path>
                            <path d="M61.6407358,28.3932459 C61.6407358,28.3932459 74.553723,28.3932459 76.9836536,28.3932459 C78.4433605,29.1373577 79.8665778,31.5370982 76.9836536,33.5983786 L62.0540935,33.3017562 L61.6407358,28.3932459 Z"
                                  id="引擎1-copy" fill="#F5F5F5"></path>
                            <path d="M61.6407358,85.7956659 C61.6407358,85.7956659 74.553723,85.7956659 76.9836536,85.7956659 C78.4433605,86.5397776 79.8665778,88.9395181 76.9836536,91.0007986 L62.0540935,90.7041762 L61.6407358,85.7956659 Z"
                                  id="引擎1-copy-2" fill="#F5F5F5"></path>
                            <path d="M55.1878788,97.4893705 C55.1878788,97.4893705 68.100866,97.4893705 70.5307967,97.4893705 C71.9905035,98.2334822 73.4137209,100.633223 70.5307967,102.694503 L55.6012365,102.397881 L55.1878788,97.4893705 Z"
                                  id="引擎1-copy-3" fill="#F5F5F5"></path>
                            <path d="M56.047063,0.304662149 L80.6521468,49.8188153 L81.0000904,69.5170954 L55.9148444,118.725319 L47.5209524,118.604987 L56.7280384,83.7300625 L56.6107317,35.0648632 L47.8997139,0.177701474 L56.047063,0.304662149 Z"
                                  id="机翼" fill="#FF8B8B"></path>
                            <path d="M0.241064038,33.8246157 L4.19706684,33.8246157 L19.0135048,56.3314899 L19.1297457,62.5235475 L4.06818214,84.81621 L0.487553165,85.1086592 L7.04966042,59.381915 L0.241064038,33.8246157 Z"
                                  id="尾翼" fill="#FF8B8B"></path>
                            <path d="M130.285503,59.3143812 C129.454778,51.3875426 110.778284,49.5784922 105.48934,49.5784922 C91.9510291,49.5784922 35.6917528,51.3875425 29.7060132,51.3875426 C2.4533861,54.9207148 2.43014945,58.9382576 1.80833349,59.5284477 C2.1264412,59.9922787 2.4533861,64.9118664 29.7060137,67.5390867 C29.7060137,67.5390867 100.217187,70.2177518 106.533865,69.2788122 C109.427489,69.2788122 129.454778,68.0530438 130.285503,59.3143812 Z"
                                  id="机身" fill="#FFFFFF"></path>
                            <path d="M112.983444,52.808874 C119.965738,57.7193136 119.41861,62.3308608 113.029604,66.1354647 C117.144468,60.9045992 113.109242,52.8600374 113.109242,52.8600374"
                                  id="机舱玻璃" fill="#505662"></path>
                        </g>
                    </g>
                </g>
            </g>
        </g>
    </g>
</svg>