<?xml version="1.0" encoding="UTF-8" standalone="no"?>
<svg width="147px" height="150px" viewBox="0 0 147 150" version="1.1" xmlns="http://www.w3.org/2000/svg" xmlns:xlink="http://www.w3.org/1999/xlink" xmlns:sketch="http://www.bohemiancoding.com/sketch/ns">
    <!-- Generator: Sketch 3.3.2 (12043) - http://www.bohemiancoding.com/sketch -->
    <title>3</title>
    <desc>Created with Sketch.</desc>
    <defs></defs>
    <g id="Page-1" stroke="none" stroke-width="1" fill="none" fill-rule="evenodd" sketch:type="MSPage">
        <g id="随手记" sketch:type="MSArtboardGroup" transform="translate(-348.000000, -80.000000)">
            <g id="Group" sketch:type="MSLayerGroup">
                <g id="3" transform="translate(348.162990, 80.295567)" sketch:type="MSShapeGroup">
                    <ellipse id="Oval-3-Copy" fill="#18C5E6" cx="73.3691489" cy="74.3842365" rx="73.1600254" ry="74.3842365"></ellipse>
                    <path d="M93.2777474,43.4589968 L144.832665,88.0552098 C141.55675,121.180837 108.325897,145.086104 85.3489458,147.142012 C70.1509129,133.188917 39.754847,105.282727 39.754847,105.282727 L93.2777474,43.4589968 Z" id="Path-21" fill="#16B2D0"></path>
                    <path d="M109.740038,101.162562 C109.740038,81.4435475 94.0177057,65.4581281 74.6232259,65.4581281 C55.228746,65.4581281 39.5064137,81.4435475 39.5064137,101.162562 C39.5064137,120.881576 109.740038,120.881576 109.740038,101.162562 Z" id="Oval-7" fill="#404E69"></path>
                    <path d="M61.2633283,67.968988 L73.840937,95.42656 L87.9196637,67.402825 L61.2633283,67.968988 Z" id="Path-19" fill="#D8D8D8"></path>
                    <ellipse id="Oval-7-Copy-2" fill="#FFFFFF" cx="74.6232259" cy="50.5812808" rx="23.4112081" ry="23.8029557"></ellipse>
                    <path d="M96.7296055,45.6276686 C97.8073122,42.8408081 95.5508946,38.2818631 93.027071,35.644379 C75.3925875,14.9593397 48.4886439,31.5614073 51.0968973,49.1000952 C51.0968973,49.1000952 55.0114319,33.8475882 67.3784775,36.0082494 C79.745523,38.1689105 73.6748817,45.3253379 82.6291677,49.1000959 C87.693787,51.2351307 95.3263557,49.2563567 96.7296055,45.6276686 Z" id="Path-20" fill="#424242"></path>
                </g>
            </g>
        </g>
    </g>
</svg>