<?xml version="1.0" encoding="UTF-8" standalone="no"?>
<svg width="96px" height="97px" viewBox="0 0 96 97" version="1.1" xmlns="http://www.w3.org/2000/svg" xmlns:xlink="http://www.w3.org/1999/xlink" xmlns:sketch="http://www.bohemiancoding.com/sketch/ns">
    <!-- Generator: Sketch 3.3.2 (12043) - http://www.bohemiancoding.com/sketch -->
    <title>4</title>
    <desc>Created with Sketch.</desc>
    <defs></defs>
    <g id="Page-1" stroke="none" stroke-width="1" fill="none" fill-rule="evenodd" sketch:type="MSPage">
        <g id="随手记" sketch:type="MSArtboardGroup" transform="translate(-404.000000, -301.000000)">
            <g id="Group" sketch:type="MSLayerGroup">
                <g id="4" transform="translate(403.940887, 301.477833)" sketch:type="MSShapeGroup">
                    <circle id="Oval-3-Copy-2" fill="#18BFDF" cx="48.06435" cy="47.9464067" r="47.9464067"></circle>
                    <path d="M21.7978027,41.4595656 C21.7978027,41.4595656 67.5576698,83.2207011 72.8194795,88.445854 C87.9189143,80.8031763 94.4641532,62.8143371 95.3044228,56.0056266 C87.7944174,49.386361 78.5125853,41.38868 78.5125853,41.38868 L45.1828813,30.9649037 L21.7978027,41.4595656 Z" id="Path-10" fill="#14A4C0"></path>
                    <path d="M49.9829333,67.9824068 C49.9829333,67.9824068 42.71318,60.7934092 42.0686447,60.4999676 C43.6446793,56.6152661 53.7540583,54.2066259 58.0561428,60.4999677 L49.9829333,67.9824068 Z" id="Path-24" fill="#FED959"></path>
                    <path d="M21.5279224,41.9520646 C34.9050426,28.437112 50.776921,27.8673614 62.8625882,31.8927685 C69.7216887,34.1773483 75.3612439,37.9420364 78.6330573,41.6603976 C75.1050409,45.357661 74.1198092,46.4405892 72.3055879,48.2212576 C55.2271551,33.7240225 38.8842144,38.6861497 27.7235751,47.8560903 C27.7235751,47.8560903 24.069095,44.8941497 21.5279224,41.9520646 Z" id="Path-22" fill="#FED959"></path>
                    <path d="M30.9370267,51.2298239 C44.3141469,37.7148713 62.3850024,43.2188649 69.3473162,51.2298235 C65.8192998,54.927087 67.8213375,52.673776 63.0366629,57.4701784 C55.7032113,50.5549071 44.9768791,49.8659187 36.9414206,57.4701782 C36.9414206,57.4701782 33.4781993,54.171909 30.9370267,51.2298239 Z" id="Path-22-Copy" fill="#FED959"></path>
                </g>
            </g>
        </g>
    </g>
</svg>