<?xml version="1.0" encoding="UTF-8" standalone="no"?>
<svg xmlns:xlink="http://www.w3.org/1999/xlink" xmlns:sketch="http://www.bohemiancoding.com/sketch/ns" width="83px" height="83px" viewBox="0 0 83 83"
     version="1.1" xmlns="http://www.w3.org/2000/svg">
    <!-- Generator: Sketch 3.3.2 (12043) - http://www.bohemiancoding.com/sketch -->
    <title>5</title>
    <desc>Created with Sketch.</desc>
    <defs>
        <ellipse id="path-1" cx="41.164492" cy="41.06348" rx="41.06348" ry="41.06348"></ellipse>
    </defs>
    <g id="Page-1" stroke="none" stroke-width="1" fill="none" fill-rule="evenodd" sketch:type="MSPage">
        <g id="随手控" sketch:type="MSArtboardGroup" transform="translate(-457.000000, -218.000000)">
            <g sketch:type="MSLayerGroup" id="5">
                <g transform="translate(457.171941, 218.450185)">
                    <mask id="mask-2" sketch:name="Mask" fill="white">
                        <use xlink:href="#path-1"></use>
                    </mask>
                    <use id="Mask" fill="#2AB5E0" sketch:type="MSShapeGroup" xlink:href="#path-1"></use>
                    <path d="M16.3413709,28.9442075 C44.906094,52.0013202 48.6451874,9.49868701 48.6451874,9.49868701 C48.6451874,9.49868701 77.2810161,24.5415262 91.9182601,32.4450834 C91.9182601,56.9246849 104.335553,89.4684535 81.5417486,87.0626533 C79.2283094,84.1750494 26.1526984,66.2753966 16.3413709,63.9461959 C18.0096423,61.489182 22.0527083,42.2307319 16.3413709,28.9442075 Z"
                          id="Path-21" fill="#1C809F" sketch:type="MSShapeGroup" mask="url(#mask-2)"></path>
                    <g id="Thumbs-Up" mask="url(#mask-2)" sketch:type="MSShapeGroup">
                        <g transform="translate(15.246887, 7.380074)">
                            <path d="M25.8120799,20.3988097 C28.9394718,14.5745765 31.1795029,7.90938812 32.1897769,0.435945604 C39.7381805,0.694136918 38.8316248,15.0026184 37.3124732,20.6910867 C37.3124732,20.6910867 47.5513252,20.8145711 49.5490207,20.8145714 C55.6477657,22.6831319 54.8272687,28.6794167 52.2831837,30.9315328 C55.3047284,35.0553393 52.4904181,38.22231 51.389666,39.2031304 C52.6517454,42.1965848 52.2831837,45.9273401 50.2180751,46.7718849 C52.9941451,50.9627772 50.4641599,54.5268502 48.1368974,55.4027996 C42.7721825,54.9374044 35.8357199,55.8681936 30.4710051,55.4027984 C26.1537575,55.0282722 19.0910101,52.8830355 19.0910101,52.8830355 C19.0910101,52.8830355 17.3361209,44.1778607 17.2923759,39.6184162 C17.2479791,34.9910516 18.8265847,25.322608 18.8265847,25.322608 C18.8265847,25.322608 24.4850744,22.8701307 25.8120799,20.3988097 Z"
                                  id="Path-47" fill="#FCE0B8"></path>
                            <path d="M1.53524955,38.7572432 C1.52200598,32.9365528 0.297587224,21.822057 0.297587224,21.822057 L15.6904257,21.5686557 C15.6904257,21.5686557 13.5268711,33.0021204 13.5771925,38.757243 C13.6279852,44.5662639 15.9937682,56.2610863 15.9937682,56.2610863 L0.376903481,56.6824042 C0.376903481,56.6824042 1.54844473,44.5566685 1.53524955,38.7572432 Z"
                                  id="Path-48" fill="#4A6CAD"></path>
                            <ellipse id="Oval-19" fill="#FFFFFF" cx="11.5197695" cy="53.2346146" rx="1.54633709"
                                     ry="1.59857337"></ellipse>
                            <path d="M32.2988653,0.53698941 C32.2988653,0.53698941 33.7159148,2.95560925 33.7606833,3.09468471 C34.3286556,4.85911605 33.7606833,6.20332783 33.7606833,6.20332783 L31.338054,5.82289365 L32.2988653,0.53698941 Z"
                                  id="Path-49" fill="#FFFFFF"></path>
                        </g>
                    </g>
                </g>
            </g>
        </g>
    </g>
</svg>