<?xml version="1.0" encoding="UTF-8" standalone="no"?>
<svg width="98px" height="235px" viewBox="0 0 98 235" version="1.1" xmlns="http://www.w3.org/2000/svg" xmlns:xlink="http://www.w3.org/1999/xlink" xmlns:sketch="http://www.bohemiancoding.com/sketch/ns">
    <!-- Generator: Sketch 3.3.2 (12043) - http://www.bohemiancoding.com/sketch -->
    <title>手握咖啡</title>
    <desc>Created with Sketch.</desc>
    <defs>
        <path id="path-1" d="M17.2208011,62.6838582 L25.7985098,71.545585 L27.3678612,73.7248551 C27.3678612,73.7248551 15.3537661,86.9723725 12.2610251,89.0865927 C9.16828404,91.2008129 7.61184675,91.4047755 4.37946067,89.4398925 C1.14707459,87.4750095 0.108766605,84.3747521 0.108766605,81.6995524 C1.54305273,76.6788481 17.2208011,62.6838582 17.2208011,62.6838582 Z"></path>
    </defs>
    <g id="Page-1" stroke="none" stroke-width="1" fill="none" fill-rule="evenodd" sketch:type="MSPage">
        <g id="随手控" sketch:type="MSArtboardGroup" transform="translate(-399.000000, -340.000000)">
            <g sketch:type="MSLayerGroup" id="手＋咖啡">
                <g>
                    <g transform="translate(267.896679, 323.985240)" id="手握咖啡">
                        <g transform="translate(183.126747, 196.347880) rotate(-330.000000) translate(-183.126747, -196.347880) translate(62.126747, 39.847880)">
                            <g id="Coffee" transform="translate(44.565873, 45.818399) scale(-1, 1) translate(-44.565873, -45.818399) translate(0.565873, 0.318399)">
                                <ellipse id="Oval-39" fill="#FFFFFF" sketch:type="MSShapeGroup" cx="48.2651616" cy="40.5753165" rx="39.262879" ry="39.9257643"></ellipse>
                                <ellipse id="Oval-39-Copy" fill="#A7A49F" sketch:type="MSShapeGroup" cx="47.556773" cy="40.1663281" rx="33.4669842" ry="34.0320159"></ellipse>
                                <ellipse id="Oval-39-Copy-2" fill="#2E181A" sketch:type="MSShapeGroup" cx="50.0232784" cy="41.4726561" rx="30.8926008" ry="31.4141685"></ellipse>
                                <ellipse id="Oval-39-Copy-3" fill="#5C3319" sketch:type="MSShapeGroup" cx="50.580904" cy="41.4794817" rx="28.9618132" ry="29.450783"></ellipse>
                                <mask id="mask-2" sketch:name="Mask" fill="white">
                                    <use xlink:href="#path-1"></use>
                                </mask>
                                <use id="Mask" fill="#FFFFFF" sketch:type="MSShapeGroup" xlink:href="#path-1"></use>
                                <path d="M25.9331813,71.4499179 L34.51089,80.3116446 L36.0802415,82.4909148 C36.0802415,82.4909148 24.0661463,95.7384322 20.9734053,97.8526523 C17.8806643,99.9668725 16.324227,100.170835 13.0918409,98.2059521 C9.85945481,96.2410691 8.82114683,93.1408118 8.82114683,90.4656121 C10.255433,85.4449077 25.9331813,71.4499179 25.9331813,71.4499179 Z" id="Path-129-Copy" fill="#CBD0CA" sketch:type="MSShapeGroup" mask="url(#mask-2)"></path>
                            </g>
                            <path d="M66.3241292,97.3144365 C62.9550991,101.747879 62.4716657,111.794637 71.1367889,106.875016 C78.9499188,96.8066023 66.8171223,95.6846051 66.3241292,97.3144365 Z" id="Path-133" fill="#EDC6AB" sketch:type="MSShapeGroup"></path>
                            <path d="M117.528018,171.217089 L109.111814,158.846005 C78.1410949,147.660591 77.7554487,120.186609 74.255972,112.198017 C62.5502131,93.2593409 60.2613958,86.0560017 58.0635069,82.3688603 C58.2313649,72.8748656 63.020399,71.3222304 68.8096781,74.5725682 C70.3198942,76.5039596 72.7265462,78.427794 73.6911661,80.2635343 C76.5854889,85.7716365 78.5274641,89.7350924 79.59326,90.41516 C80.4148633,90.6817627 83.8687159,88.1987615 85.0672589,87.3371811 C87.0764757,83.2705652 87.3885794,82.8564375 86.3978644,79.646187 C85.1565391,77.7001002 83.1947424,75.4446245 81.5636749,73.5758081 C80.0734604,71.8683759 78.4847416,69.9905002 77.2460808,69.0772308 C79.3275302,65.2724816 84.966899,63.5063539 88.3956688,64.6447632 C98.5516209,69.2071605 111.657856,85.8273602 114.055523,88.5797101 C116.788692,89.4378663 119.175927,90.8062034 121.527175,91.8695959 C128.139634,105.73256 138.839936,131.279627 147.374897,150.915604 C139.299052,153.334845 117.528018,171.217089 117.528018,171.217089 L117.528018,171.217089 Z" id="Path-131" fill="#FCE0B8" sketch:type="MSShapeGroup"></path>
                            <path d="M83.9617802,87.5102443 C85.3971172,86.2936867 88.0611856,82.6209736 86.2319869,77.3154659 C87.7038088,78.9714533 87.4866094,85.237235 88.9584314,86.8932224 C90.209649,88.3010018 94.4011055,86.5067661 94.4011055,86.5067661 C94.4011055,86.5067661 90.3328461,93.8110206 91.8294695,97.7353342 C93.3260928,101.659648 99.5636075,99.8882184 99.5636075,99.8882184 C99.5636075,99.8882184 94.267634,103.519743 93.7279423,105.229454 C93.0828848,107.272958 96.00936,111.147863 96.00936,111.147863 C96.00936,111.147863 94.0425776,110.678998 87.4745295,103.770682 C83.1489818,99.2210429 77.9388026,90.7648896 76.7714616,86.5494057 C79.9643185,89.4201805 79.3861775,90.1694055 83.9617802,87.5102443 L83.9617802,87.5102443 Z" id="Path-132" fill="#EDC6AB" sketch:type="MSShapeGroup"></path>
                            <path d="M119.034311,90.0631565 C118.79107,94.3896765 119.501506,96.7824467 119.501506,96.7824467 L116.664056,87.9280162 C116.664056,87.9280162 118.254544,89.235306 119.034311,90.0631565 L119.034311,90.0631565 Z" id="Path-134" fill="#EDC6AB" sketch:type="MSShapeGroup"></path>
                            <g id="袖子" transform="translate(166.750929, 222.428750) rotate(-30.000000) translate(-166.750929, -222.428750) translate(128.250929, 140.428750)" sketch:type="MSShapeGroup">
                                <path d="M1,1.75803906 L76.7846213,1.75803906 L76.7846213,163.145782 C39.8472095,163.145782 12.0477328,155.439721 1.61669929,151.813532 L1,1.75803906 Z" id="Rectangle-3" fill="#5A5374"></path>
                                <path d="M1,1.75803906 L40.5462045,1.75803906 L40.5462045,160.863405 C23.1694746,157.927902 12.36984,155.97416 1,151.810651 L1,1.75803906 Z" id="Rectangle-3-Copy" fill="#4C4565"></path>
                                <rect id="Rectangle-100-Copy-3" fill="#2F2B42" x="1" y="0.0869182999" width="75.9287127" height="6.68448303"></rect>
                            </g>
                        </g>
                    </g>
                </g>
            </g>
        </g>
    </g>
</svg>